<mxfile host="app.diagrams.net" modified="2022-08-05T02:30:50.391Z" agent="5.0 (Macintosh; Intel Mac OS X 10_15_7) AppleWebKit/537.36 (KHTML, like Gecko) Chrome/103.0.0.0 Safari/537.36" etag="goXEyn-P7zgQLlOg1QDj" version="20.2.2" type="github">
  <diagram id="I4vfOLa_x9rqfRFTziJR" name="Page-1">
    <mxGraphModel dx="2328" dy="836" grid="1" gridSize="10" guides="1" tooltips="1" connect="1" arrows="1" fold="1" page="1" pageScale="1" pageWidth="827" pageHeight="1169" math="0" shadow="0">
      <root>
        <mxCell id="0" />
        <mxCell id="1" parent="0" />
        <mxCell id="nFh94Qq6Yh2SKhDZ8qFQ-111" value="" style="group" vertex="1" connectable="0" parent="1">
          <mxGeometry x="-100" y="15" width="920" height="570" as="geometry" />
        </mxCell>
        <mxCell id="nFh94Qq6Yh2SKhDZ8qFQ-79" value="" style="rounded=0;whiteSpace=wrap;html=1;labelBackgroundColor=#FFFFFF;labelBorderColor=default;fontFamily=Verdana;fontSize=10;fontColor=#000000;strokeWidth=1;dashed=1;" vertex="1" parent="nFh94Qq6Yh2SKhDZ8qFQ-111">
          <mxGeometry x="790" y="106" width="130" height="334" as="geometry" />
        </mxCell>
        <mxCell id="nFh94Qq6Yh2SKhDZ8qFQ-45" value="" style="rounded=0;whiteSpace=wrap;html=1;labelBackgroundColor=#FFFFFF;labelBorderColor=default;fontFamily=Verdana;fontSize=10;strokeWidth=1;" vertex="1" parent="nFh94Qq6Yh2SKhDZ8qFQ-111">
          <mxGeometry x="281" y="50" width="490" height="470" as="geometry" />
        </mxCell>
        <mxCell id="nFh94Qq6Yh2SKhDZ8qFQ-1" value="" style="shape=image;verticalLabelPosition=bottom;labelBackgroundColor=default;verticalAlign=top;aspect=fixed;imageAspect=0;image=https://user-images.githubusercontent.com/6728866/82723931-f8ee0580-9d04-11ea-80f7-7e4de04d5a59.png;" vertex="1" parent="nFh94Qq6Yh2SKhDZ8qFQ-111">
          <mxGeometry x="293.45" y="58.5" width="161.24" height="40" as="geometry" />
        </mxCell>
        <mxCell id="nFh94Qq6Yh2SKhDZ8qFQ-20" value="&lt;font style=&quot;font-size: 12px;&quot; face=&quot;Verdana&quot;&gt;Feature&lt;br&gt;&amp;nbsp;Server&lt;/font&gt;" style="rounded=0;whiteSpace=wrap;html=1;fontSize=8;strokeWidth=1;" vertex="1" parent="nFh94Qq6Yh2SKhDZ8qFQ-111">
          <mxGeometry x="488" y="147" width="70" height="59" as="geometry" />
        </mxCell>
        <mxCell id="nFh94Qq6Yh2SKhDZ8qFQ-85" style="edgeStyle=orthogonalEdgeStyle;rounded=0;orthogonalLoop=1;jettySize=auto;html=1;exitX=1.006;exitY=0.36;exitDx=0;exitDy=0;exitPerimeter=0;entryX=0;entryY=0.25;entryDx=0;entryDy=0;fontFamily=Verdana;fontSize=12;fontColor=#000000;" edge="1" parent="nFh94Qq6Yh2SKhDZ8qFQ-111" source="nFh94Qq6Yh2SKhDZ8qFQ-6" target="nFh94Qq6Yh2SKhDZ8qFQ-20">
          <mxGeometry relative="1" as="geometry" />
        </mxCell>
        <mxCell id="nFh94Qq6Yh2SKhDZ8qFQ-6" value="" style="strokeWidth=1;html=1;shape=mxgraph.flowchart.database;whiteSpace=wrap;" vertex="1" parent="nFh94Qq6Yh2SKhDZ8qFQ-111">
          <mxGeometry x="307.38" y="130" width="97.17151298398383" height="90" as="geometry" />
        </mxCell>
        <mxCell id="iQF4MEa4rTd-WDovFEwi-19" value="" style="shape=image;verticalLabelPosition=bottom;labelBackgroundColor=default;verticalAlign=top;aspect=fixed;imageAspect=0;image=https://icons-for-free.com/download-icon-redis+plain-1324760569616342910_512.png;" parent="nFh94Qq6Yh2SKhDZ8qFQ-111" vertex="1">
          <mxGeometry x="312.6802643445809" y="166" width="37.101850412066554" height="37.101850412066554" as="geometry" />
        </mxCell>
        <mxCell id="iQF4MEa4rTd-WDovFEwi-18" value="&lt;div style=&quot;&quot;&gt;&lt;span style=&quot;font-family: Verdana; background-color: initial;&quot;&gt;&lt;font style=&quot;font-size: 12px;&quot;&gt;Online&lt;/font&gt;&lt;/span&gt;&lt;/div&gt;&lt;font style=&quot;font-size: 12px;&quot;&gt;&lt;div style=&quot;&quot;&gt;&lt;span style=&quot;font-family: Verdana; background-color: initial;&quot;&gt;&lt;font style=&quot;font-size: 12px;&quot;&gt;Store&lt;/font&gt;&lt;/span&gt;&lt;/div&gt;&lt;div style=&quot;&quot;&gt;&lt;span style=&quot;&quot;&gt;&lt;br&gt;&lt;/span&gt;&lt;/div&gt;&lt;/font&gt;" style="text;html=1;resizable=0;autosize=1;align=center;verticalAlign=middle;points=[];fillColor=none;strokeColor=none;rounded=0;" parent="nFh94Qq6Yh2SKhDZ8qFQ-111" vertex="1">
          <mxGeometry x="345.3652278028301" y="161" width="60" height="60" as="geometry" />
        </mxCell>
        <mxCell id="nFh94Qq6Yh2SKhDZ8qFQ-86" style="edgeStyle=orthogonalEdgeStyle;rounded=0;orthogonalLoop=1;jettySize=auto;html=1;exitX=0;exitY=0.75;exitDx=0;exitDy=0;fontFamily=Verdana;fontSize=12;fontColor=#000000;" edge="1" parent="nFh94Qq6Yh2SKhDZ8qFQ-111" source="nFh94Qq6Yh2SKhDZ8qFQ-20" target="iQF4MEa4rTd-WDovFEwi-18">
          <mxGeometry relative="1" as="geometry" />
        </mxCell>
        <mxCell id="nFh94Qq6Yh2SKhDZ8qFQ-22" value="&lt;font style=&quot;font-size: 10px;&quot;&gt;&lt;font style=&quot;font-size: 10px;&quot; face=&quot;Verdana&quot;&gt;Redis (S&lt;span style=&quot;&quot; data-slate-fragment=&quot;JTdCJTIyb2JqZWN0JTIyJTNBJTIyZG9jdW1lbnQlMjIlMkMlMjJkYXRhJTIyJTNBJTdCJTdEJTJDJTIybm9kZXMlMjIlM0ElNUIlN0IlMjJvYmplY3QlMjIlM0ElMjJibG9jayUyMiUyQyUyMnR5cGUlMjIlM0ElMjJwYXJhZ3JhcGglMjIlMkMlMjJpc1ZvaWQlMjIlM0FmYWxzZSUyQyUyMmRhdGElMjIlM0ElN0IlN0QlMkMlMjJub2RlcyUyMiUzQSU1QiU3QiUyMm9iamVjdCUyMiUzQSUyMnRleHQlMjIlMkMlMjJsZWF2ZXMlMjIlM0ElNUIlN0IlMjJvYmplY3QlMjIlM0ElMjJsZWFmJTIyJTJDJTIydGV4dCUyMiUzQSUyMnNpbmdsZSUyMFJlZGlzJTIwaW5zdGFuY2UlMjIlMkMlMjJtYXJrcyUyMiUzQSU1QiU1RCUyQyUyMnNlbGVjdGlvbnMlMjIlM0ElNUIlNUQlN0QlNUQlMkMlMjJrZXklMjIlM0ElMjJhZjdmYmEwNWYyNTA0NTBhYjJhNjQwNDhlZmEyMDRjMiUyMiU3RCU1RCUyQyUyMmtleSUyMiUzQSUyMjNjMzg3OWJjZDcyNjQ5MjRhMTNjOGU0NzQ4YjVjYzU1JTIyJTdEJTVEJTJDJTIya2V5JTIyJTNBJTIyMGU2NGRkOGJkZDhlNGYxOTgxMDAxODNhMTJiMmU3NjglMjIlN0Q=&quot;&gt;ingle Redis instance)&lt;/span&gt;&lt;/font&gt;&lt;br&gt;&lt;/font&gt;" style="text;html=1;resizable=0;autosize=1;align=left;verticalAlign=middle;points=[];fillColor=none;strokeColor=none;rounded=0;" vertex="1" parent="nFh94Qq6Yh2SKhDZ8qFQ-111">
          <mxGeometry x="293.45" y="100" width="170" height="30" as="geometry" />
        </mxCell>
        <mxCell id="nFh94Qq6Yh2SKhDZ8qFQ-32" value="&lt;font style=&quot;font-size: 12px;&quot; face=&quot;Verdana&quot;&gt;Feast SDK&lt;/font&gt;" style="rounded=0;whiteSpace=wrap;html=1;fontSize=8;strokeWidth=1;" vertex="1" parent="nFh94Qq6Yh2SKhDZ8qFQ-111">
          <mxGeometry x="446.62" y="313" width="76" height="25" as="geometry" />
        </mxCell>
        <mxCell id="nFh94Qq6Yh2SKhDZ8qFQ-33" style="edgeStyle=orthogonalEdgeStyle;rounded=0;orthogonalLoop=1;jettySize=auto;html=1;entryX=0;entryY=0.5;entryDx=0;entryDy=0;fontFamily=Verdana;fontSize=10;" edge="1" parent="nFh94Qq6Yh2SKhDZ8qFQ-111" target="nFh94Qq6Yh2SKhDZ8qFQ-32" source="nFh94Qq6Yh2SKhDZ8qFQ-11">
          <mxGeometry relative="1" as="geometry">
            <mxPoint x="411" y="310" as="sourcePoint" />
          </mxGeometry>
        </mxCell>
        <mxCell id="nFh94Qq6Yh2SKhDZ8qFQ-94" style="edgeStyle=orthogonalEdgeStyle;rounded=0;orthogonalLoop=1;jettySize=auto;html=1;fontFamily=Verdana;fontSize=12;fontColor=#000000;" edge="1" parent="nFh94Qq6Yh2SKhDZ8qFQ-111" source="nFh94Qq6Yh2SKhDZ8qFQ-3" target="nFh94Qq6Yh2SKhDZ8qFQ-6">
          <mxGeometry relative="1" as="geometry" />
        </mxCell>
        <mxCell id="nFh94Qq6Yh2SKhDZ8qFQ-3" value="" style="strokeWidth=1;html=1;shape=mxgraph.flowchart.database;whiteSpace=wrap;" vertex="1" parent="nFh94Qq6Yh2SKhDZ8qFQ-111">
          <mxGeometry x="305.4599243206054" y="271" width="101.6752665978672" height="90" as="geometry" />
        </mxCell>
        <mxCell id="iQF4MEa4rTd-WDovFEwi-7" value="" style="shape=image;imageAspect=0;aspect=fixed;verticalLabelPosition=bottom;verticalAlign=top;fontSize=11;image=data:image/png,iVBORw0KGgoAAAANSUhEUgAAAlgAAAGQCAYAAAByNR6YAAAACXBIWXMAAAsSAAALEgHS3X78AABKiUlEQVR4Xu2dCZhdVZXvSUIGCIaAqLQDKOgntmFItFVkRrCZCY5IQsiAgBJCBhwhZAK/FiETgzJIZl633ZIEB2yZwqiiBELiU98TGkFt+olKApVUJamq919xX7xc7r1nn/Gec+6vvq++QO4e1v7tUzn/WmvttXfaiS8IQAACEIAABCAAAQhAAAIQgAAEIAABCEAAAhCAAAQgAAEIQAACEIAABCAAAQhAAAIQgAAEIAABCEAAAhCAAAQgAAEIQAACEIAABCAAAQhAAAIQgAAEIAABCEAAAhCAAAQgAAEIQAACEIAABCAAAQhAAAIQgAAEIAABCEAAAhCAAAQgAAEIQAACEIAABCAAAQhAAAIQgAAEIAABCEAAAhCAAAQgAAEIQAACEIAABCAAAQhAAAIQgAAEIAABCEAAAhCAAAQgAAEIQAACEIAABCAAAQhAAAIQgAAEIAABCEAAAhCAAAQgAAEIQAACEIAABCAAAQhAAAIQgAAEIAABCEAAAhCAAAQgAAEIQAACEIAABCAAAQhAAAIQgAAEIAABCEAAAhCAAAQgAAEIQAACEIAABCAAAQhAAAIQgAAEIAABCEAAAhCAAAQgAAEIQAACEIAABCAAAQhAAAIQgAAEIAABCEAAAhCAAAQgAAEIQAACEIAABCAAAQhAAAIQgAAEIAABCEAAAhCAAAQgAAEIQAACEIAABCAAAQhAAAIQgAAEIAABCEAAAhCAAAQgAAEIQAACEIAABCAAAQhAAAIQgAAEIAABCEAAAhCAAAQgAAEIQAACEIAABCAAAQhAAAIQgAAEIAABCEAAAhCAAAQgAAEIQAACEIAABCAAAQhAAAIQgAAEIAABCEAAAhCAAAQgAAEIQAACEIAABCAAAQhAAAIQgAAEIAABCEAAAhCAAAQgAAEIQAACEIAABCAAAQhAAAIQgAAEIAABCEAAAhCAAAQgAAEIQAACEIAABCAAAQhAAAIQgAAEIAABCEAAAhCAAAQgAAEIQAACEIAABCAAAQhAAAIQgAAEIAABCEAAAhCAAAQgAAEIQAACEIAABCAAAQhAAAIQgAAEIAABCEAAAhCAAAQgAAEIQAACEIAABCAAAQhAAAIQgAAEIAABCEAAAhCAAAQgAAEIQAACEIAABCAAAQhAAAIQgAAEIAABCEAAAhCAAAQgAAEIQAACEIAABCAAAQhAAAIQgAAEIAABCEAAAhCAAAQgAAEIQAACEIAABCAAAQhAAAIQgAAEIAABCEAAAhCAAAQgAAEIQAACEIAABCAAAQhAAAIQgAAEIAABCEAAAhCAAAQgAAEIQAACEIAABCAAAQhAAAIQgAAEIAABCEAAAhCAAAQgAAEIQAACEIAABCAAAQhAAAIQgAAEIAABCEAAAhCAAAQgAAEIQAACEIAABCAAAQhAAAIQgAAEIFAUAn2KYih2QiAPBE5ctWmb7OjSdz9928+PffeGtK1e+7Bj1E4ZpX/SP/9RbAiJrm5zn3nrrdWnn01Yr2/l76o/q/d31Qa/0nZw/z6dXz9s16P2H9rv8SQAMAYEIJA/AjvnzyQsgkCuCXTLukFOYOXaUIzLL4GObb39v/Tw5h8/9WL3cRJZ6/JrKZZBAAJRCfSN2pF+EGhTAuaFMO8VXxCIRUAiay+JrHsksobHGojOEIBALgkgsHK5LRiVRwK9vb1Jh9TyuExsypCARNbrTWSt+9P2ozKclqkgAIEMCCCwMoDMFBCAAAQaEZDI2mPOo1tWypM1AkoQgEB5CJCDVZ69ZCWtJfBXTb+Hvi1xerv7s2JRdTJ1bWJ19f/Xesiaecx8vWm+7VpLrzWz+yS5B7Vp9Hl1wnvlF9lNWuae9ZZqIkuerLslsj5C4ntrHgZmhUDSBBBYSRNlvLITqCdY/vLD01+3V58+fYJexmVnw/qaELAQ80mrX/qLmgxtIrIsJ8sS39cCEwIQKDYBQoTF3j+szweBPRBX+diIPFvhnpEhzWx0nqz/lMg6JM9rwTYIQCCYAAIrmBEtIFBNoG49JRLgeUiSIuBOF97F6cKkiDIOBFpDAIHVGu7MWkACTbxUvXiwCrihrTHZ8vMCv5zIwpMVSIoGEMgvAQRWfvcGy4pDgNyr4uxVqy21QrVeXxJZb1DiO54sL1o0gkD+CCCw8rcnWFQ8ApzUK96etcpib4FlBuLJatU2MS8E4hNAYMVnyAgQgAAEfAn01Gu43+59f9FoAOfJsmt1qPjuS5l2EMgBAQRWDjYBE4pBoEkiOx6sYmxhHqysF07u1sXPJ0tkPSED64abncj6EacL87CF2AABPwIILD9OtIJAMwJ9OEXIA+JJoO4p1MH9+/xJIusoiaxHmoisN5KT5UmZZhDIAQEEVg42ARMKTwAPVuG3sKUL2OG12m1A303Ok2Uiq+4XOVkt3Scmh0AoAgisULhoDIH6IRy4QMCTQF0PVqWvRNZGiayT5Mn6aRORVTldeIjnnDSDAARaQACB1QLoTAkBCECgisCrEt+dJ+uEgMT3vRQutMT3gyEJAQjkkwACK5/7glUQgEA5CXiFk50n6yMSWT/Hk1XOB4FVlZ8AAqv8e8wKIQCB/BCod0qwruhynqzjJLIeDRBZVvH9oPwsEUsgAAEjgMDiOYBAOAJUbQ/Hi9avJtA0B6sWlhNZxweIrMrpQsKFPG0QyBEBBFaONgNTIACBtiTQ9C7LKpHVrBipiSw8WW35+LDovBJAYOV1Z7ALAhAoIwGvHKwGnizLyWomst7k6mThySrjk8OaCkcAgVW4LcNgCECgHQlU5WThyWrHB4A1F44AAqtwW4bBOSRAXlYON6VIJvneBFB1urBZ4juerCJtPraWlgACq7Rby8IgAIGCEAgVNgyR+E5OVkEeAMwsJwEEVjn3lVWlR6CetwoPVnq8GbkOgSqR9bNGgHStDp4snh4ItJAAAquF8Jm6NAQQWKXZyuIsxImsjyrxvZnI4nRhcbYUS0tGAIFVsg1lORCAQPsQqBJZze4uNE8W1+q0z2PBSnNCAIGVk43AjEITwINV6O0rtvFOZP1zgCfLRJblZFHCodjbjfUFIoDAKtBmYSoEIFB4AqES2n1XW5WTZZ6suoLf5WSZJ+sQ33FpBwEIRCeAwIrOjp4QgAAEkiDQR1+xvaASWS99/bBdgzxZlpP1I0RWEtvGGBBoTgCBxRMCgfgEYr8c45vACAUhUNeD5VsHK2iNVTlZP1Hb7nrtnSfLwoV4soKA8jkEYhBAYMWAR1cIQAACIQnUE1iJhg2dJ+sEl5PV00Bk4ckKuXE0h0BYAgissMRoDwEIQCDnBKoS3x+RqdsCPFnDc74czINAIQkgsAq5bRgNAQgUlEDqHqwKF4msl5WTdbLzZDVKfDdP1p2ECwv6NGF2rgkgsHK9PRgHAQhAIDoB58mycOGDGmVrE08Wie/RMdMTAnUJILB4MCAAAQi0lkCiOVi1S5HI6nCeLAsXbm8issyTRZ2s1j4LzF4iAgisEm0mS4EABHJPoJ6Y6pe21S5ceIo8Wfdrrs4GImtvV/GdnKy0N4Tx24IAAqsttplFQgAC7U7AebJGSmQ9LBaNEt/JyWr3B4X1J0YAgZUYSgaCAAQgEEggsyT3epY4T9YZElk/1+eNSjhUrtXBkxW4nTSAQGMCCCyeDghAAAKtJWDepAFpm1ApZurqZJ0ukbWu0ZwqRkqdrLQ3hPFLTyDV5MrS02OBbUXAXlAnrX5pixY9sGbh2354+usGJnHdSVsBbcPFnrhqk53k61+79AP36mceJft78yrZL77V/zZXl1iw/658V4apbVtpX2ln41W+rY9VeN8mEfX6pzf2vKvZNgzu3+dPSpA/Yf+h/da24XaxZAjEIrBzrN50hgAEIACBMATq1qNa/0L3P4UZJKu2EmFvcHWy/lki64ms5mUeCJSBACHCMuwia4AABIpCoHD3Vrpwod1dSAmHojxl2JkLAgisXGwDRkAAAm1CoJBpGU5kWYkHviAAAU8CCCxPUDSDAAQgkAABK/RpeXyF+5LIqs09LNwaMBgCWRIgBytL2swFgYwIPN/R/bbd+vfZpBNjGzOakmn8CLygZkP0bZ6sSjK7/Xftd22iemX02oT3yt/X84xVt618Xp0gb/9dO6/ZZM/M0DrLKVx4029LaAWBdAggsNLhyqjlJVA3xJOXE4QSVvuu+PXW6ePu6pigE2Abl/+q8+qR+w+4FqGVjwfyzpFD9s2HJY2tcKdl/9JAZOXdfOyDQG4IECLMzVZgCASiE3h5a89QianLJaz+z93PbZtgIymks/uK32ydPvaujqd//LutZ0cfnZ7tRMD9smBettqvQuaPtdPesdZ8EUBg5Ws/sAYCoQiYt0HCaqaJKImpWepcW7BygITWnvMe77z5nB+//IyE1jmhJqBxuxIgHNiuO8+6EyOAwEoMJQNBIFsCJpYkrJ6SsJohEbVHwOwD/9/mnn2d0PoNQivbvSrgbHWv0SngOjAZAi0jgMBqGXomhkA0Auv+tP2oLz7U8aDE0mKJpneEHKWf+rxLfb994X0v3x2yL83bhwACq332mpWmRIAk95TAMiwEkiagBPZ3zJWo+vLDm4+MMbb9UtU16t0DZir5/YbrYwxE11ITqBciJAer1FvO4pImgMBKmijjQSBhApbAfuP6rvlKYLdE9Vhe5w/tvfNt5x848It7D+73h4TNZDgIQAACEKgigMDicYBATgmYsFr11NYpyrOapByroXHM3G/3vj8/b9igyQe/YedHZjQZyLxkdz+7bfRx+/RfLBH2XJw56VtoAvW8VXiwCr2lGJ81AQRW1sSZDwIeBJSEPl7Caq6VWvBo3rCJamF1nDds4AUf3XfA8mbhQDuNuOLXXbMnrtl8kSvvcNk1j21ZMuqAAXMQWnF2oLB9EVOF3ToMzwsBBFZedgI7ikwgsZeREtiPVp7VciWhvyUuEOVZzVCe1YKgIqOa81iJuVvtlGHVnAOsnpa+x6kMxByfceLaS38IQAACZSKAwCrTbrKWLAikUh/ITgau+E3XVUpg/0DMRfQe97b+i+V5miXP0++ajaVw4H7K7bpOc56gdvVEouV79VUZiEtXPb1tioTWXCe0NsW0ke75J5DYLw35XyoWQiAdAgisdLgyankJ1BNYkUWX5TzpaptZEjmxK60fuFe/e0a9e+Ac5VndP60Jf5fbNVVJ819Vs34eW2XFSgdYvS0JrYsUvvyCQo5LPPrRpLgEOEVY3L3D8pwQQGDlZCMwozAEEvnNvkrkXNbAe+QN5I279n1O4cBLJXqWXRXQ65E/bht54ZrNCxUOfJv3BH9v2E9Cay+FL29VDa2zrz9mt+MijEGXYhCI/EtDMZaHlRBInwACK33GzFAuArUvnk6VPlh1p+caXTL5LHcyMG4C+6aR+/W3y5wXBuVZWThQuV1L5jy65XBPUxs169Z6v6NSD1+ihlZMkvnujsDK9/5gXQEIILAKsEmYmA8Cdgnuias2WYXrLn33VUjufoXkpisk91MfC93JwBnyHu3j075Jm27lWS1yeVa/bzZWpdSDCwfG+Xnvkafs2fOHDfzch9/c/0fNSj3EXBvdIQABCJSCQJx/cEsBgEVAICSBbgmNpyQ0LpHQ+HFQSM7GVgL7MUpgv0KhtQ+HnKu2eY9E3RqJutlBeVbWUYJunCv1MDTmvDudvt+Aa0YfMOAKecoaJrhrnUdaDS0JvyuDEuzj2kP/1AngwUodMROUnUAi+SRlh8T6IFAhsPK3XRec8c6B3/Ih4sJyy9e/0H2oT/smbXZ4j5RndbnlWQWN9dSL3cNv3NB5reY1QRfnZ7xXBUp/MXX4LhP2H9pvfaN5zUt2zdrOJT99fvtJamO/tHXKw7ZcQms2NbSCdiufn8tT2yHLdq2xbtudI4cMyKfFWAWB/BGI849v/laDRRDIAQETVnYyUDWkRsc1R4VC/6I8q/mjDhh4hYUom41nQmf5r7fOXv301okxhdVOmvdFzXvN6PcMuqLZnOYlu2lD1zeU/P762nYaY6PGmOdKO7wYlwX9syPQQGBtlcAamJ0VzASBYhNAYBV7/7A+RwRcvtMlKmVwsQTHbjFN2y4v0FIlk08NSmC3eZoJnZB2bLcw5NThg85tFuZzF08vkZfsMI3f7H7EXgmtl0wkSmjN9VlLSHtpngIBBFYKUBmy7QggsNpuy1lw0gTsZOBdz24bL0/OPAmr18UdXwLnvvOHDZqqsNwTQWNZgdKbNnQueHpjz4EBQidoKPNavSxhdaZyy37QqLE7BTlDNbG+ojahwkWunMR0amgFbkXLGyCwWr4FGFACAgisEmwiS2gdAdWV+tiNG7oW6GTgW+NaIQHyeyXPXyiBc0fQWOYtUxX2uQpDjlFbn2KhzYbsURL7PCWxz2nmYXLX+NiVOm/XYFH/7diqdb6gfLKvIrSCdrl1nyOwWseemctDgFOE5dlLVpIhAbu/TycDv6a6Uh+MO608R1bPyvKsZgblWZkHadVTWy/W6cBLrehn3LmVxP7EecMGTdKpxAcvaDBYRcy5avNx/83oL7uHJOHpi7t2+ocmwMnC0Mjo0M4E4v5j2c7sWHsbEnAJ7FdKbJyZwPItz2qJ8qwukefoxaCMePMgTVzTMV/hwINjzm15UZbEvkBJ7LOaFQyVh+40iblFEkR7xpxzR3cJurU6lThe4c8nkxiPMSAAAQjklUBUN39e14NdEEiFgLw4e+iE3hyd0Pu8Joj7c2OJ5JZn9QUJjXVBBltCucKB81UG4dSE5rYk9s8qif2ZRnNrzrer8vtiJbEfoTbNktiDzH/lc4UFL5Ogu9K7Aw1bRqBBiLBLpwgHtcwoJoZAwQjEfVEUbLmYC4FwBFxS92y75FhenFhX29jMyj96RuLmHIXkHgiyxM09U3NP0txDg9oHfG5eqz+fpwKpzXKfKknsmnNivdILUWzQmp/Xmj+pNT/k019es1MO2qvfA82KmvqMQ5voBCSwXlbvwTUjILCiI6VnGxIgRNiGm86S/Qi4SugzE7jaxk7obZIHZ7qKlC5c4jG9hQMtNOcSyj16NG2yTaHIZQpFTrNQZKOWdiJRIcirXQiyf9xJrb/mXax5pzSbtzKPvIS7y0s4S3ltF9uJxuW/6vyGq6G1MQlbGAMCEIBAlgTwYGVJm7kKQcDEjUofXCeh8d4EDN6mE3rf0gm9y31ERoj6Uj6m9cp79Ad5j86W92hNUIdZP928WGHIT6mdFZOMFRaUQOrQvJ/RicjvBc1rn4v54QpJ3uZOY1b+XeqxcZQr9g2FFuf4jEObZAjgwUqGI6O0NwEEVnvvP6uvIuDEzVLlHR2eAJhuV7DTcp3+K2g8V6R0cpT6Ug3G3iaP2RU6mTgn6GRidX+7T1CnI6eLwTH6+0jlH7Tuey//wC4f9xGUNrc8VZdr3XZ/dCNRZ0LxOfMAKry5NIgln8cngMCKz5ARIIDA4hloewImrHS1zewkrrYRzB1iQN6bMXYhsw9c5RyNVC2t+S4UGftnUgLnHs0/Ic6Fy3Z6UDYtDGOTVWx3YdAFPuvWnYkHzX18y3JXJNWni93J+AfVCvtcs2KoPgPRpjkBBBZPCATiE4j9j3l8ExgBAq0h4LxG05TQPVUJ3bUX24Y2KqzAcJdBL3LXzUTyFlUbaXf/SeDMVJ7X/GbGK7dslJLI10iA/aFZO1dza5K8S3OC6lap/MIGlV8Y5Vt+QZdmX6xxZ0U8OGCnMB8a9e6B030T50NvZpt3QGC1+QPA8hMhgMBKBCODFImAEw5TLSwVJBw819WtPKvrXZ5VYEK2hN2e7lLmczV+Epfn9nxo751vnzZi0LnNKrG70gsm6I7WvD0SYzNcEvlLzdYpe4eouOkU8ZpZp12vrf2CgwZd5MPKRO3sR7esdDb4dGnaRkLrZ/LWfUxi8Y+xB2OAVwhIYNkzUXufZqfKNOwCJghAwI8AAsuPE61KQkChrzMU+rpOoa83J7CkXgmbO+xCZr3gn/YZT96jCbqz8BvuMui4J/UqSewWjryv2fzyGJknanpN9fftlkSu0g2Tldu0OMh+CbS3KpQ6S6HU8dbWJdCP9kmgt/Zif6oS2ZdF9FrVM69nyvBB48jLCtq58J8jsMIzowcEagkgsHgm2oKAkrePUfL2VfKcvD+BBfcqJLZOV8xM8RUXlTmV0D3H1dQycRUnLLlVHqivyQM1r1m9KOU5HXyjLoN2ifuNwpCWkP+wQm6X++SNieUHf/Lf2z8uj93XfBLZrfyCCqXOkzAblwD7HUNI3D2tRPqRCkmuT2pMxvk7AQQWTwME4hNAYMVnyAg5JmB5Tnq5X6fyAycmYabVZ5LH58I4XhNXFX66qsJfKJsGhLSr104nqgr8VImLJxr1rRQMldfqq2rj6ynrUd2q5fLITZZw+mtIu+o2t9pa8lotT+Iy7MoEWv9/Slx9ulk4VIwt9Lqz2nQksY52GwOB1W47znrTIIDASoMqY7acgBMxV7irbZKwZ7s8RlfKYzQ3qQrjEn/7SvwtcFfgBNadskrssmGOktibntKT1+oQnc5bpNN5h0RZuLun8FqVeJgRpsRD9VyVKvQSeJfp7wPX5mun8r3mKt9rWrP24rqPipWu/J/Nve9UDa2vq4bW13zHp93fCCCweBIgEJ8AAis+Q0bIEYGqk4GTXZ5TbOuUZ7XSqqB71rPa465nt4069B92XqX2v/eZ3Lw8Cl/OVhjvyAbtLYl9lbPhmUZjWijOJaNfqjZxb2nY7koiTFNJhO/6rKPSxsKSrvzCsDD9mrWV6OtUMvsngsoziOURElertfd7uPEqNbQulddxeVL2lH0cBFbZd5j1ZUEAgZUFZebIhIAlkMtjcqXCUW9KYkLlWf1SeVYTffOs7GodO2nnakdtVbhtyagDBsz2FVrqf64loqv/22S//Wxa3affq+7TxKCK6C4UtzSJa30cu+1mgxj8avoHdjnRdw1KprfThnY6M/a9jZU99C0BYaUfdIBgfoO9N6H1rKtPFngPZBLPT5HHQGAVefewPS8EEFh52QnsiEzAEth1tc31Com9J/IgVR3dybqL5PFY5DOeheSUSD5fHqij6rTfbvcAOqH1TNB4VZdLT1K/W5RIPjsg12ioSj7MVCh0osaOXUuryj4rPbFAXrNLfMKEVVf8HBG0xjCfi8FS2TApgIEl0c9XEv1Yj7F7lMP1oBL6Z/gk9HuMV8omCKxSbiuLypgAAitj4EyXHAEJmxESNt+UsPlAEqO63KN5vhcMWzjSvdjP1vxBeUZ24fJt7uLjRBLIqyrA75vE+itjuPILZ0mAeHl6ZMfpSmRfVBWWS8QcKx8RlG9mtb0UErwjRDX4im07DgvIozVe3rlA4ZvIggo0SAOB1aU6WIMKtAxMhUBLCSCwWoqfyaMQsJOBqsc0Rx6Ls6L0r9OnV+JncUgv00xXbqGS6+NliiWqK/H6my5ZPpLQMmF3zdrOJUqOP81rUv9GVtdrlQqWjvcsv2B2LHVJ+v6zBLS0k5oKS54S5GFy+VZ3SNgNjTH5Fu39v/rufYx5CtUVgVWo7cLYnBJAYOV0YzDrtQRcAvsXJGym6KWaSEVpu5jYhYse8mFu4Uh5axbHzXWSiHjBCa1vSMw0raRebZfzFt2q9e/pY69vGwuLyptzlnK97vDpIw5Hu/ILb/Fp79tG+VZrv37Yrh8JEnhWOFX5VnM1bmJhUYm6j2n9K31tLXM7BFaZd5e1ZUUAgZUVaeaJTKDqahu7Ey8RYaUw2B9V8uArvvWsXI7RUlewM/Jaajp2yY7Hrj96h6DobDaoq+dlJR1OVrtEf24tJ0ni6hyfU5K2FxYWVc7XpKQgVMaxQwFTRwwa1yznyxUt9c238jXRwrdLp71vF7u6iC8RQGDxGEAgPoG4R7njW8AIEGhCwK62GXtXR1JX2+wkT80meY4WKkRnnqNNQfDNa2b3Bo67q+PzSXpLNNZ2JZHfoCT2mc3EVUVcTlyz+bKYobB6S+1VntNUuxz6qiAQ+lw5b8MnrulYpnyn93o0925il2TLjkl2XU+zAleWb/Wlhzev1vwHeQ/u0dD2QbW1Jns0pQkEIAABbwIILG9UNMySgKsN9XUlMH8wqXnNS6Fcm1kh7g0cJ3E3N2lhozDY4yr/MNXKP1zQZHHmtZKgWCav2YeTYlAZx0pQTB2+y9mqBv+4z9hWfkHiykJyiX6ZJ1FV2U+VHWubDazn4UiJzFVJJ9LrLsMxEnbLEl0Ug0EAAhAQgURDDRCFQFwCLhT2TYXCPhp3rEp/d8/eV31PxVl+kSv78I9J2WDjWPK2vGdXq7L4rGbjOq/V5KTrSVXmlMfmWnlsvEJ8KYVGd5iihPrvKaF+jEe+1WTlW12tLonlW5knU2HR0UH1xZLc/yKNRYiwSLuFrXklgMDK6860mV12tY1yexbqZODopJZu5QaUZ3W5PBS3+oxpYsJskLg7xad9mDYSeQ/ohT42KM/JwnCqgp54GM5sFY//tkR238KpCs+epkT2FUlVxK/mpX2ZLaE5oxnDlPKtTOhuViL9Yc3ucmxklzx5n99v936Pi+FPwux/0doisIq2Y9ibRwIIrDzuShvZVHUycFJSL3JXz2ph0Au8gtnZMFWnEy+WDUOSxG8vc5df9O0gr9WKX3fNktfKrrkJqqkV2kRXfmFckLfIBnZlIBIvv2BjmxdPIm9U0GlFE7t25U2E+lZN2biq8KMlrtaFhXjNY1tu1i8AOxLhJZjv1jomSDA/G3acIrRHYBVhl7Ax7wQQWHnfoZLaZ2Ew3dk3XoLiCpU82DuhZfYoz2qFinleLCHhVWPKXW8zWza8NSEbXhnGTsX5FBZ1legXSkwkdndfxQgXChsjQbPaZ32u/MIK8XizT/swbSRu1qkUwhlBXrw69wmGmaZhW5tfnqujfURm9SDmSZv96JbblQt3bM3gdvrQrkOyvD6veycTWUgGgyCwMoDMFKUngMAq/Rbnb4F6gR7raij9Q1LWWVXu84cNmuIb9nHX21ybcNmFHcuxxG15N85WGOneZutzJxTnuGtukkLxyjiWe2Z2BAka65Bm+QUbX0JkkRObG5stVCE4y7e6Rm0S9eJZIVnNP7nZlTv17LI90kGD+yR+D2lid7eFPH1vAEh8o1MYEIGVAlSGbDsCCKy22/LWLdhdbXODRE1iJwMtz0qXIX/ON1nZ5XpZHaUxKZDo0Yv2ilEHDJwZdH+fK1i6PA1Pka3LlV+Y57NGE5su7ytxD5ppN53UGxtUb6zq2qFzfGwO08bEnWpcjQ/Tx9qKyzB5rn7gW1TWyk3oEINdtTQ3rJALa1va7RFYaRNm/HYggMBqh11u8Rrd1TazJWpGJWWKy7O6VnlWl/uM6S5RnqM8q4nKs9rdp0+YNvIW3e+Kdf6uWT8TeFZXKy2vlcJg61V+YYyPJ88xsbyv6WHW6tvWBIdCckcG2eLuE0y8vpWJO3ef4UJfmyvtJK4OkufqgSjPioVlNe/Fx+/Tf0mQ0A5rV1btEVhZkWaeMhNAYJV5d1u8tkryuF7gl8mUpJ41y7Na5pPbVFm+1dRSSHKZPBFvSxqJCT3zFslDsyhobLucWXYsSTqRvjKvyi8sMC4+L/U0yy+YPRayVX2rjwXlwll9KyWzJ17fSib0yHM2XvuyJGhfaj/XPp3sTk/GEuJ2alMezemyoekBh7D2ZdEegZUFZeYoO4GkXnpl58T6QhKwu+IkrGYmWRhSL+2HlGc10fcEmBMRVqjzsJDmezXXybzvuzpOTRPqzWvlLkVOvPyDGWphUqvp5Ft+wRL7lec0L4p3xgeMb50tl2+VaH0rs89ErzxnxwR5zuqtRWzOnvd451Kfdfq2sZOLKix7ke/++I6bZjsJrJcNZc0cXXeOHDIozXkZGwJlIoDAKtNu5mAt7lTepfIW2SXAifxj7Js0Xlm+Sx6fpTDchfq7xIpTVsaXPc87QXNPEHLntVqclpiJUH5hsep8nR5kd5TPJWw65c27IMhrlGa+lYXnJK6OiiKulv+qc4b9UhBl7T59rBbaVYcPPsqnbavbILBavQPMXwYCXJVThl3M0RokaqZIXO0vk3rjmqWX5UaFWGbaXXm+cR4TeLre5moJmj3jzl+vv+yZoSTmeQp9vdRsfMs7szCTwl8fSsMOsemQyDtTyf3fb1qt001u5RfEZWXS1/5U1iYvzZPK/bL6UusDuLxDuU13pFGSImoZBrNXNa5ulbgal8ZeuTF77aomnzsfU7SBoSEAgQwJ4MHKEHY7TGXhML1A79ELdHiM9VYuQp7hW7MorettKmuwJHaFJyf7eEYU+prqwqOvi8GgYVfZcp/E1TiVX2iaUG8DWA0nJdXPlPCdnIYtNqa8aCsVKh0ftFeWC2fFQ9Pw5rmcrzOCbKhlYHwUvl2SllevMp/ywcbZZdZp7UHS4zbwYG1ViHBg0nMxHgTKSgCBVdadbeG6XO0gE1kjQprRrRflvRIP5/pWyHZ3F16rF+RJIefyam4n4SxRWV60BUEd0k4ct/ntdJps8ToVl3L5hR04fO1x+VZeZSOCONd+bjWupkrg+ST3V/d1z+kDSVeLr7VP4urcoiW6I7DCPoW0h8BrCSCweCpSIeBeXvd6erJ6XZ7VKCUC3+9jkDuhOM2VXRjq0ydsG3lmvivPzLlBXhFX7mCmvFZeJSPC2mHtFf76pUJwZ8uD9rhP/7TziezKG1VlPzUocTvNfCtx6LWTk7q4eooPk+o27iqe2wMKiIYd9jXtJa4m+N6FGXuyBAdAYCUIk6HalgACq223Pv2FO5F1l15i728wW7de1Fuch2i+r0XKs5ogMTMjjbILZoMdr1fx0vN9ipemeTlzhYdExHUqvzDJx0Pjcr+WpFGhvmKP5VtJXJ0uL+MzzfbMiZjvaf/f67u3IdpZAdNzJF6Wheizo6l59hTGvjfJE671bCiquLK1ILDCPlW0h8BrCZDkzlORGgHz/EhkHa+X2d16yb7PTWTJ79367mPCYbTucQuqlVQx0PKsVvym60odo/9wSkb3yKYbZNPlQTZVvFYT13Sk5rWyRHYJmdPsyp0LPBZsCf4T12xeIOGQSu6XmeAbjrO9ki2pJNW7+xXPkgD+gQeWVzWxCvp6Hs2uWDWuguZ1NbgCa6MFjcPnEIBAcQngwSru3hXG8pqcrG1WWkAemWnygDzns4iUr7fZYYKdQFMIbqxPEru7ENkKlyZ+QXSFhxjdrvDkhKDwpLU3vq7O1qk+PKO0sROdyreaFHTljY2tfKsp7j7BxP99sVIQKsNwqM8+1a5TAvRcifObo6w/TJ8yiCs8WGF2nLYQqE8g8X8AAQ2BegRcLs6C4/bpf7M8Mg/5UHJeotnKs/p8WmUXzBviQpSBieNV9bUm+dgfpY3lNknIXOgjZGz8tOts2RwKmT6nquynBYkaJ/RSq7PlrgGyUhBPhmUr0fcFib7UqyS4exd9q4qEXUZm7RFYmaFmohITIERY4s3N09KcJ8b7Il8JhzNUt+kaeYnekdY6nCftInnSfh80h3mtLlyzeWlaeV82v5Ua0AnKsZ7lF4aq/MIclT2YGGR7nM9l0z0SV58I8qQpr+lghd4WeR5qCG1S1BpXJtLnru1cIXH1mdCThuzgcsISrQIf0gSaQwACOSKABytHm4EpO+1Udb3NoeLRNw0mrkjnZ3yS2CueN11UPSYNW9yYvVZQVRdXz/aZwxLrZz+65fsSe2/2aR+xjdk0QzbNCeovMXyqiqreKi/jXkFto3yuvK9F7u7JjWH6u727UXv3qTD9orSVuBoTJeE+ylxZ9JEHq0Pz7FozF3WwsoDPHKUhgAerNFtZ7IW4gpizxt3Vcb5WksgVO/WIKIl9vpLYZ8ojE/iylnA4XV40u+ZmaFp05Zl53OV+BYa9XMh0hhLrfYq3RzbZ7vKTJ22MjwBVOYjp8qJ9RZPtEnnCJh1NXE173y7jp4Uc3BW8fTClE4yvssaFBUOfZgy5JJpDAAIFI4DAKtiGldFcS4qWkPmChMwbtL5UnkmrI6ULdyda3aagE3kul2iJhMNpafK2Gk7uxOKmoHnMsydhtTrtopiW5+RKMPyXh017i9HJajcgqG2Uz32LmNaO7cSV1WBLozxErbiyUhGEBaNsMH0gUHIChAhLvsF5X57ugFumEM7otOy0028j9+u/UKEur3IK7pqby9KskWSJ9SZigop0VpiYALW6XymXFuixu/IUipvs492r3i95sS6XfV9O0ItlNa7sapnQyeKuxtU9aR2KqF53WRLa6/3sESJM618kxm0nAgisdtrtHK7VlXCwUM6wpM1TgvZDCnWdo6Txp4PGdgU6l6lAZ1o1tnaYoMT61Sq/MC6ozpa1rXjSdA1Qqp40TdUtb9EUXcFzbRCnRp+L377Kw7pZ/I6POob1M0GsMgzH+Fasr57Liav70gzpVuYrs7iyNSKw4jzF9IXA3wggsHgSWk7Aiaz7krq2xO4PlLAa5ZNDZHlNq57aOs2uuUmzQKd5rSzk5Xvhr/K/TpNgWZK2WLB8KydonkjiQbA7B8Xy0igJ705cHSVxtS6sLVZk1dW46he2b9j2Rbu4Oez6EFhRiNEHAq8lgMDiqcgFASey7pfIOiiGQZUw15SgsgI2h53Gu3FD5/XyutiJxdS+5Em7T4JvgjxpgXlNrtbWzNVPb7VaW6n+fCrf6jGJq+N9vGli9S4Jn//rA8l53r4tz9sZvmuQLU/IlmN9bKm1wYmrW31si9um7J6rCh88WHGfFPpDIOV/wAEMgTAE4ogsFcP8vUTMWcprejBoTncab455WoLaxvw8bPmFESq/sFLlF/aJOW9gdztN6XNJsit1cLXy5CYovPkdhTfP883RMi/cjRu6rg+qeC8Beq9qbX3cRxRXL8zVuFqaZg5f9XztIq5szQiswB8hGkAgkECqvyEHzk4DCNQQcCfA1oTwZHWrXtPsUQcMnONzGXIWlzPbklzV8TFB1c+trRN8s5zgS6X2VwWzhU8Vqpzoc/KtXuhW/V8w3r75WlXV7+3wZu1pw253t+FnffaujriyAxKjsvghaidxhcDK4olijnYggMBqh10u2Bqrjtkf0sT07fJ83C+v1bkKvT0TtER70SvXamoGIsYujLZLrO3C6MBaW1Z+QaUOvptWBfRqLhJ9G1Rz62wf0ecqs9/b4DRej1VWV9mLSb7XHqkS/uHKKVvsKuGb0OoyTvKiXRK0d7Wf2/MhT9/3FNo9LGzfKO3bIeeqlgserChPCn0g8GoCCCyeiFwScN4Tq2U0vMbA7e6+PksY96o/5C5nXq6X+1vSXKx5h1R+4bSQ5Re+JBHzpjTtsrHd6cWxPmE45TSdo4TxW9QtqCbZNlfL6wofMWl2WGFSK+kg0XK+9m952HVH8HCGneJV7dvNc1VZPAIr1mNDZwjsIIDA4kHILYE6ImuLEwqf8xEK9jK2+/qUMP75tJ912XW78pMm+NhlwOW5euuXHt5yr0Tf/vrfNMOCPQrpzVEdsJlBG+1ymhYp7OZ9Z6SNKWH5F3dCMrRgCrKp+nN3RZDlqO0bpl/Utu0qrowXlz1HfWroB4G/E0Bg8TTkmoDzWDzy8radhigceKZPErstSAnWH1OC9fw0L2d24uJFiYvJUYpiOgE4QwLwojREVhiPmuNspTIOjvhAWMj23vOHDbpEIcj1Ecdo2E3iaoQuk16TZimN6snb/eJmBFbSTzDjtSMBBFY77nrB1qyX/0ATIPIObQky3YTCNWs7V6hEwIlBbeN+LkHxgCtk+kycsRTCPEr5SUuTPD1odxwqXPkxn/w0V6Dzrii1q+qse7PChjcoB807bBjETiHLCTdt6Jor+4YEtU3i83b2XFX4IbCSeJIYo90JILDa/Qko0frltTpDQuWmhIRCMzLeYTdfvFX1ryaqT6ximTqZd+vUEYPO9TmZ52pI3aQ5g/KtfJdi7bpVNuOZ84cNvETFXleF6Vjb1sSVyweLM4x333b3XCGwvB8VGkIgkAACKxARDfJOwE7i3bi+61p5rU6IK06C1irP0JM6iXeOz0k8G8u8b/K8dQWNW/lc3qwjrYK782aFzc2yO/zs8uFlQfO5fKslyrc6O6htnM/jCBYlxF+RQa2yV5YXx9Y4jPLYFw9WHncFm4pGIOw/4EVbH/aWmICJBF3NMm3ims0/k7g6OWVx1WvFOVVt/EgfcWWi74sPddw99q6O38izdpLvNijH7IHrj951uOZaqD7dvv2s0Op1Rw8e4SOuLIw6cU3HEymLq23ypN3ie9Kzep22r7oEfDniynf3aQcBCOSRAB6sPO4KNgUSkEjYTbWQ7lUtJEvKri1gGdg/TAO7R9CVX7jfp58E1Uh5oW5VqHIP175LpwxX6pThBb7lDKyf82YtC8jN6lUu2D2qhP5JnxOMLt/K6ltVbPNZUtg2vUr8v0jFSK8P29Fds3NbFjl0FdvIuXrtLuHBCvvk0h4CryWAB4unoqgEeiQSdk9bXJkwWnz84H3lWQoUVxIHu3/ryc4FKhx6e42AGSjBcKa8Wb+T+PJOvnferIPNc6Z1bq2zUXYVz2VXHT7Y7hN8MWgjlc80Vp6rX6Qsrnos1BZVXOmk4CMZiysLqS4JYsfnEIAABMISwIMVlhjtc0PA1cm6R6UFRiRtlHmtzAvjG+IKcQVPt0Tbd+XNOt9HFFXWJW/WYe6kodWA6me1p3SCcZSSyH8UtPao9a2Cxq39XDZtdCHUJ8P2Fb+D5j6+5Tbt5XvD9o3anpyrxuTwYEV9qugHgb8TQGDxNBSagBNZdndh1PpNr1m/Qm73SbyM9ylxYJ2VBzbZygjoP71/niRGXrQSDxJId/hugHnIVDh1+vo/bz/GJdpvCOrr6lvdLz4HBrWN87lV15e4OsInP612HhNX5rmSZ21wHBvC9EVcNaeFwArzNNEWAvUJeL8QAAiBvBJwIstExEExbbSQ20xVPZ/tM47LF1qskNbpPu3rtDFvluVmfTaMN8t3LpdvdU+D+wR9hwlsZ/cSSlwdHWUNCpmeKs/ciqwKiEoIdiif7gTfOxQDF1/SBhJYL2lpu9Usb9udI4ekmu9YUpwsq00JkIPVphtfpmXbi91e8HrRR64gbn3tFJ6vuLLioMqpeiaGuLIt6Kf+n9A4T0to2CnIxL6svpWrfL5nYoPWGcgu3I4qruzOQ+Wr3ZGhuNosWz+MuErziWBsCECgQgCBxbNQCgISWX/Vy/Mo86aEXFC3lURQ38N9wluWz2SJ7F9+eLOdxLMk+9hflnRuifGzfrr538wrFmdAZ991Ks5ppxgTsa+RPSrDsEjcjoniubKwqmxcHGetYfrKc7VFth6qPQ6dHxZmHtpCAAIQqBAgRMizUCoCYXKO3F19p8ujcZ8PBKttJSG0Os18Jtn0vEJYn7YThD42Vbextat0xQ9UuuLQsH1Dtt9RE+yCgwZNDdlvR3PVuLICp2Oi9I3SR0zNc/WhNO5IjGJPEfoQIizCLmFj3gngwcr7DmFfKAJVnqwnmnTsUe7Tf6j8wj6+4spCbipo+nia4srslddpb3nH7pGX7F/CLNzyrS5cs/nJDMTVTkoQHxNFXO3IWXtsy9KMxVXFcxU5fBxmH2gLAQhAoEIgyfvHoAqBXBAwkaWX+bHKQbISDsOrjZI3468qv3CxVTyf4WGtiQJdw7NA4awsPS4vhQl1Wn0rrXVh2rlM5gnSycdP6eTjDzzQvaqJO4jwsPbjH8P2jdreea4IC0YFSD8IQCAWAQRWLHx0ziuBGpFldbK2SrQ8ofDbJ1V+4Vkfu622lbxCK1VJ3WpPZfKlK2+eU1X203zzwZz4uyht4yRWtlqCuOwKm+O2k4VWJQBXZSyuyLlK+6FgfAhAoCkBBBYPSGkJWPK1PCfH6eV+76F773y7TgjO8bm7xRLFV/y6a5aqnn9VcPplBUhhy39XyYbzfJLGnUfoDoUEj0jbPnfB9egoOUwmUhVaXSPv2pC07ayMj+cqK9LMAwEINCOAwOL5KDUB82RpgcN9hJWBcEnyqyRcjswSjF15IwF4pU/Y0uVbrQ64ozAR8+PUuDJx5UpFZCmuOp2njdOCiTwBDAIBCEQlgMCKSo5+pSOgWlSnqybVLfK27JXV4lzhy1OUbL/GZ05X32pe2iUYzBYrw3D+gQOnhLmgurIG2XmuPIA3+6wpqTZ4rpIiyTgQgEASBDhFmARFxig0AVc7ar5KMPx7luLKQm/XHb3rgT7iytm4MIv6VhVxNe19u4yPKq5kZ9biipyrQv8UYjwEykcAD1b59pQVhSCgMNbB8rTcogTsQ9Qtq5+HXnmHljjv0ItB5rp8q+8rbHlYUNskPtcpy8lnvHPggrBjuUulb5O4OjNs3zjt8VzFoUdfCEAgLQJZvVDSsp9xIRCZgKqJT1OO0BfktXpT5EHCd+x1Fw0vm+bR1+VbfU/5Vm/1aB67iWwbpxIWi8MO5MTVCtW4ylpckXMVdrNoDwEIZEIAgZUJZibJIwGJgQlZiiurHK8E7CN9SjAYL7urz9W3Sj1JXLZtsquGfG2r3k/zsMkL+BN5AQ/Icp/d9TdWoZ2E9izBMxcEIOBFgBwsL0w0KiMBO22mPKjHslibLkW+xyrH+woYVXKfb3f1ZVHeIKzwqxFXe0gEPtgCcWWeK8RVFg8vc0AAApEIILAiYaNTGQhYvSm9pI9T/amVaa5H9/YtuOrwwcf51rfSpc93rH5668Vp2lQZWwJzvYTfvlEKiFr+ml3PI3E1LAtbK3M4z9UH8VxlSZ25IACBsAQIEYYlRvtSETDRo/yhj89d27lIIcNzklyceYZ0tcwoXS3zPZ9xLd9K3qBlWQkWedUeUtX4U32EX639ztaH5GEb7LO2pNqIqXmuuP4mKaCMAwEIpEYAgZUaWgYuCoE+ffpIY/WOM3slss7WH7E9u/IMbZg6fBerfu51tYzV4JK4WppFSNDWqVOMy6aOGHSOrT3sPrm7D69rgbiyUgyEBcNuGO0hAIGWEIj9ImmJ1UwKgYQJmNBQ3aexJjw0dHeM4XsVclwtIXCEj7iy03fLf9V5hWpwrcpIXPUqZHmt1jomqrhSbtiiFogrcq5iPJR0hQAEsieAByt75syYYwLy6sTxZHWrhtRU1ZBa6HPljV3LM/tnW77z0+e3H5cRkh6VYRivMgxLosynxHsrdJr6xdK1tnFaMMpu0QcCEGg1AQRWq3eA+XNFwHl1xl7z2JZQ4UKJgI3TP7DLSJ+q7LZgd0/fbVmdvrMyDMoHG+2bD1a9Ka7G1RIl3lv4NNMvcq4yxc1kEIBAggQQWAnCZKjyEKjyZI3Wqvo1WVm38q2eUEjweHexdCAE5VuNtGR2hdl2C2ycQAPnAYpc40petuXysp2cgCmhhsBzFQoXjSEAgZwRQGDlbEMwJx8EajxZo2RVvZ+V7crZWiwxdp5vPpPyreYo3+qyrFYp8fdLJdufFaWkgYUwJQQfyOpUYzUT57kioT2rB4V5IACBxAkgsBJHyoBlIuA8WX3c6cI+lbVJAPzZ7uxTPtNynytvrNr5NWs7b1vxm60nZsXHLpO26uwRyzAMdyUj3puVvVVsOS2YNXTmgwAEEieAwEocKQOWiYAr4TBWa+rn7tnreeOufZ9V/aiR8gpt8Fmry7damqUnyDxrukx6ssTVRh8bq9s4ex/IKoRZx3NFnauwm0Z7CEAgdwQQWLnbEgzKGwEnsizBe/vLKqw5bcSgz/p6hVy+lV15s3tW65K4WqQyDON9PGu1NsneM+S5MnszyQ+rEVd4rrJ6SJgHAhBInQACK3XETFAGApWcLFuLTwkGO3m34tdds5Rv9VXzfmXFwMKWKhOxIMp8KiA6QfbeEqVv3D7kXMUlSH8IQCBvBBBYedsR7Ck8Acu30sm7ZTp5d0qGi7EaVxOUE7Y4ypxKvv+aalx9JUrfuH04LRiXIP0hAIE8EkBg5XFXsKmwBJ7v6H67QmzfVb7ViKwWIYFil1Yfo5ywJ8LO6WpcLVfy/Vlh+ybRnjpXSVBkDAhAII8EEFh53BVsKiSBdX/aftjENZu/q/ylN2W1gDjiyjxtuuT6BiXvfyYre6vnwXPVCurMCQEIZEUAgZUVaeYpNYGVv+2a/OWHN1+hRQ7OaqEqw7DOPFe+BU6r7TJxJU/bI/K0vScrexFXrSDNnBCAQKsIcNlzq8gzb2kIKDn83Js2dM3LUlwduFe/ByWujo4irhTGfIfE1YOIq9I8gmks5JWab2kMzpgQaAcCCKx22GXWmCoBJZbfotII/5bqJFWDa64lMQqIHqIw5rosa3LVeK46ZTsV2rN6WJgHAhBoGQEEVsvQM3GZCKji+1kSPv+R8pp6Tt9vwALVuBrrezVPtT3KETtCnqv7lSP2upTtrDu8y7n6YJRre1phL3NCAAIQiEMAgRWHHn3bjoDCgZ+tt2gJnh6JrE+l6MnqVRmGcRccNGhyFOiye6xyxKw6+5Ao/eP2IaE9LkH6QwACRSNAknvRdgx7W0pAtaKul1jpUlhwaa0hruL7jhN5Opn36aQMlTjZNHX4oFEffnP/70cZ08SV7F4UpW8SfWR/F2HBJEgyBgQgUCQCeLCKtFvY2lICVjNKBvSTWPmmRMuZDTxZvfJkfSYpT5arE3VkVHF1zWNblrZSXOmk4/+WuPonwoItfXSZHAIQaAEBBFYLoDNlMQm4vKfNTmQtl8gaFSCy/leclUqc/FLixHKW1oUdx8SgiSt50uwOxZZ8yf4Nsv8w2b++JQYwKQQgAIEWEiBE2EL4TF1IAju8WE5kLZXI6lG48DVCyoULTYBtk8ixP0PdRyhxsl7i5EjfS6WrSarG1R4T13Tcr5OCB7aKcBz7W2Uz80IAAhBIkgAerCRpMlY7EOivRVZ+Memr8NutzTxZOvF3jsKFy9WnxxeO2i+OI650UvA+xJUvbdpBAAIQSIcAAisdroxaXgK1BRgHSWTd1Gy5VlZBommZj8hSu0VqPy6K5+qpF7uHj72r47cSVwe3Cr8LC0byvLXKZuaFAAQgkAYBBFYaVBmzzATq/cwEVr2uElndDeD0nDds4MVqNz4KPImrEfJcrVEZhj2j9E+ijwsLHhFFHCYxP2NAAAIQyBMBBFaedgNbikrAK7/KiSwLF9aKrO2qcTX+jHcOXBgFgNXmcuKqJTWuzGZyrqLsHH0gAIEyE0BglXl3WVsaBAK9Vc0mrfVkqQzD/1x39OD3K1F+SRRjJa7OsxBlq6qzI66i7Bp9IACBdiCAwGqHXWaNqRNwNbK85rEcK8vJeuOufZ9TMvtHo5Zh+NaTnd+UuLrRa9KUGpFzlRJYhoUABApPgDINhd9CFpADAqG9WiayVE5hV+UrWV2tUF8m5uau7Vyh8g87qsa36ouwYKvIMy8EIFAEAgisIuwSNuaJQG9SxkQRV1bjSvlWP1z/QveHkrIjyjh4rqJQow8EINBOBBBY7bTbrDUJAokJrLDGOHG1RmUYDgrbN8n2eK6SpMlYEIBAWQmQg1XWnWVdpSKgMgwHy3Nl1dlbLa7s+hvqXJXq6WIxEIBAGgTwYKVBlTHLTCBzD5bE1YFWnV0nBfdoJVgXFqTOVSs3gbkhAIHCEMCDVZitwtBWEwhzUjApWx/547ZTJa7uRVwlRZRxIAABCGRDAA9WNpyZpdwEeu1y56SXqBpX4+Y8uuV6jbtL0mOHGY+cqzC0aAsBCEDgbwTwYPEkQCAcgcSFVL3p1/1p+1F2kXQOxBU5V+GeD1pDAAIQQGDxDEAgAoF6Aitx0XXwG3a+X8VIvxPBvsS6cLdgYigZCAIQaEMCeLDacNNZcjEITB0x6EyJrH9thbWEBVtBnTkhAIEyESAHq0y7yVqyIJC4t6qR0ZbXpa+z9HmnqraPzWJxNgfiKivSzAMBCJSZAB6sMu8ua8uMQFonDE1kubsLI10GHRYAFdrDEqM9BCAAgfoEEFg8GRAoAAGFC+2CaBNZqXnQyLkqwIOAiRCAQGEIILAKs1UY2s4EnCdrrBNZPUmzICyYNFHGgwAE2p0AAqvdnwDWXygCLly4NElPlsTVk1x/U6jHAGMhAIECEEBgFWCTMDFXBPq02poqkRXbFOe5Omq3AX1fjD0YA0AAAhCAwCsEEFg8DBAoIAGJrEq4MLL1eK4io6MjBCAAgUACCKxARDSAQD4JxBFZeK7yuadYBQEIlIcAAqs8e8lK2pCAO11oOVneX3iuvFHREAIQgEBkAhQajYyOjhBoPQFXjHSsLOmrYqSjgyySuFqnhPajybkKIsXnEIAABOIRQGDF40dvCLScgBNZY2RIH4msUY0Mkrh6XOLqWMRVy7esCAakVm+tCIvHRggkQQCBlQRFxmh3Ai1/GTmRdbY2oreeJwtx1e6PaDLrtxsL7FlLZjRGgUC5CSCwyr2/rK6NCFR5sixcaHcY7viSuHpMnqvj8Fy10cPAUiEAgZYTQGC1fAswAALJEXAiy3KxTGSdKXG1FnGVHN82HwnPVZs/ACw/HAEEVjhetIZA7gk4kXWWxNVPjt+n/xJ5rjbm3mgMhAAEIFAyAgiskm0oy0mdQCF+i3d5MgtTp8EEEIAABCBQlwB1sHgwIJAAARJ/E4DIEBCAAARKRACBVaLNZCkQgAAEIAABCOSDAAIrH/uAFRCAAAQgAAEIlIgAAqtEm8lSIAABCEAAAhDIBwEEVj72ASsKTsAKMBZ8CZgPAQhAAAIJEkBgJQiToSAAAQiUmEAhTtCWmD9LKxgBBFbBNgxzW06Al0zLtwADIAABCOSfAAIr/3uEhRCAAAQgAAEIFIwAAqtgG4a5EIAABCAAAQjknwACK/97hIUQgAAEsiZAKDxr4sxXOgIIrNJtKQtqAQFOELYAOlNCAAIQyDMBBFaedwfbIAABCEAAAhAoJAEEViG3DaMhAAEIpEqgboiQOzdTZc7gJSOAwCrZhrKclhAgRNgS7EwKAQhAIL8EEFj53RssyycBxFQ+9wWr0ifAs58+Y2YoEQEEVok2k6VAAAIQgAAEIJAPAgisfOwDVhSbAL/ZF3v/sB4CEIBA4gQQWIkjZUAIQAACEIAABNqdAAKr3Z8A1h+WQD1vFR6ssBRpDwEIQKDkBBBYJd9glgcBCEAAAhCAQPYEEFjZM2dGCEAAAhCAAARKTgCBVfINZnkQgAAEIAABCGRPAIGVPXNmhAAEIAABCECg5AQQWCXfYJYHAQhAAAIQgED2BBBY2TNnRghAAAIQgAAESk4AgVXyDWZ5mRCoezFuJjMzCQQgAAEI5JIAAiuX24JRBSOAwCrYhmEuBCAAgbQJILDSJsz4EIAABCAAAQi0HQEEVtttOQtOgUBvnz598GKlAJYhc0WAZzxX24ExeSeAwMr7DmFfbgg4EcVLJjc7giEQgAAE8ksAgZXfvcGy4hBAdBVnr7AUAhCAQCYEEFiZYGYSCEAAAoUiwC8NhdoujM0jAQRWHncFm4pGoKdoBmMvBCAAAQikSwCBlS5fRocABCBQRAJ9img0NkMgTwQQWHnaDWwpAoF6oRN+joqwc9gYhkC/MI1pCwEIvJYALwaeCgjEJ8DPUXyGjJAvAjvnyxysgUDxCPBiKN6eYXGLCPT29jYKm/Rp8lmLrGVaCMQiUO/dQOJ7LKR0bjcCCKx223HWmwaBlzTojp8lE1qILX/EFV5F+tN/dcVr6fbBnuWOOtaTl1W8LcXiFhLgB6aF8Jm6WATs5XPS6pdeltW71rH8r/q7ymlCy1+xl5T9fFX+tC6VnzfzBNTzBlQ+b/Rn9bSV/rV/7tB5VQ0beR2i/uwHeTGafd7QA1isJyG0tT6sa7lV/r9e30bj1XsWKsZW97F22/W9zf1p/99f3wP0bc+ufTa0ziq33jlyyMDQq6cDBNqUAHH2Nt14lp04gT0SH5EBIZAvAj5CMV8WYw0EWkiAEGEL4TN1IQkEeXAKuSiMhoAHAZ59D0g0gUCFAAKLZwECngS4i9ATFM3KSoCCumXdWdaVCgEEVipYGbTEBOxnprvE62NpEKhHwJ55PFg8GxAIQYAcrBCwaAoBERik7y591yaiN0tKroALymFplOhcDT5M0nPcDWtmr+/LNmjNcW30ZdtsHp+1+KzDZ5xaO+r1aXRIIaitD8vadTQas7qd/VJh3iveFz6EaQMBCEAAAuEJUIYhPDN6QAACEIAABCAAAQhAAAIQgAAEIAABCEAAAhCAAAQgAAEIQAACEIAABCAAAQhAAAIQgAAEIAABCEAAAhCAAAQgAAEIQAACEIAABCAAAQhAAAIQgAAEIAABCEAAAhCAAAQgAAEIQAACEIAABCAAAQhAAAIQgAAEIAABCEAAAhCAAAQgAAEIQAACEIAABCAAAQhAAAIQgAAEIAABCEAAAhCAAAQgAAEIQAACEIAABCAAAQhAAAIQgAAEIAABCEAAAhCAAAQgAAEIQAACEIAABCAAAQhAAAIQgAAEIAABCEAAAhCAAAQgAAEIQAACEIAABCAAAQhAAAIQgAAEIAABCEAAAhCAAAQgAAEIQAACEIAABCAAAQhAAAIQgAAEIAABCEAAAhCAAAQgAAEIQAACEIAABCAAAQhAAAIQgAAEIAABCEAAAhCAAAQgAAEIQAACEIAABCAAAQhAAAIQgAAEIAABCEAAAhCAAAQgAAEIQAACEIAABCAAAQhAAAIQgAAEIAABCEAAAhCAAAQgAAEIQAACEIAABCAAAQhAAAIQgAAEIAABCEAAAhCAAAQgAAEIQAACEIAABCAAAQhAAAIQgAAEIAABCEAAAhCAAAQgAAEIQAACEIAABCAAAQhAAAIQgAAEIAABCEAAAhCAAAQgAAEIQAACEIAABCAAAQhAAAIQgAAEIAABCEAAAhCAAAQgAAEIQAACEIAABCAAAQhAAAIQgAAEIAABCEAAAhCAAAQgAAEIQAACEIAABCAAAQhAAAIQgAAEIAABCEAAAhCAAAQgAAEIQAACEIAABCAAAQhAAAIQgAAEIAABCEAAAhCAAAQgAAEIQAACEIAABCAAAQhAAAIQgAAEIAABCEAAAhCAAAQgAAEIQAACEIAABCAAAQhAAAIQgAAEIAABCEAAAhCAAAQgAAEIQAACEIAABCAAAQhAAAIQgAAEIAABCEAAAhCAAAQgAAEIQAACEIAABCAAAQhAAAIQgAAEIAABCEAAAhCAAAQgAAEIQAACEIAABCAAAQhAAAIQgAAEIAABCEAAAhCAAAQgAAEIQAACEIAABCAAAQhAAAIQgAAEIAABCEAAAhCAAAQgAAEIQAACEIAABCAAAQhAAAIQgAAEIAABCEAAAhCAAAQgAAEIQAACEIAABCAAAQhAAAIQgAAEIAABCEAAAhCAAAQgAAEIQAACEIAABCAAAQhAAAIQgAAEIAABCEAAAhCAAAQgAAEIQAACEIAABCAAAQhAAAIQgAAEIAABCEAAAhCAAAQgAAEIQAACEIAABCAAAQhAAAIQgAAEIAABCEAAAhCAAAQgAAEIQAACEIAABCAAAQhAoJwE/j8vU6dABdK3LgAAAABJRU5ErkJggg==;" parent="nFh94Qq6Yh2SKhDZ8qFQ-111" vertex="1">
          <mxGeometry x="293.4437564499484" y="300" width="76.91990712074303" height="51.3312693498452" as="geometry" />
        </mxCell>
        <mxCell id="nFh94Qq6Yh2SKhDZ8qFQ-11" value="&lt;div style=&quot;&quot;&gt;&lt;span style=&quot;font-family: Verdana; background-color: initial;&quot;&gt;&lt;font style=&quot;font-size: 12px;&quot;&gt;Offline&lt;/font&gt;&lt;/span&gt;&lt;/div&gt;&lt;font style=&quot;font-size: 12px;&quot;&gt;&lt;div style=&quot;&quot;&gt;&lt;span style=&quot;font-family: Verdana; background-color: initial;&quot;&gt;Store&lt;/span&gt;&lt;/div&gt;&lt;/font&gt;" style="text;html=1;resizable=0;autosize=1;align=center;verticalAlign=middle;points=[];fillColor=none;strokeColor=none;rounded=0;" vertex="1" parent="nFh94Qq6Yh2SKhDZ8qFQ-111">
          <mxGeometry x="346.13003095975233" y="305.5" width="60" height="40" as="geometry" />
        </mxCell>
        <mxCell id="nFh94Qq6Yh2SKhDZ8qFQ-31" value="&lt;font style=&quot;&quot;&gt;&lt;font style=&quot;font-size: 10px;&quot; face=&quot;Verdana&quot;&gt;Local (Parquet files)&lt;/font&gt;&lt;br&gt;&lt;/font&gt;" style="text;html=1;resizable=0;autosize=1;align=left;verticalAlign=middle;points=[];fillColor=none;strokeColor=none;rounded=0;" vertex="1" parent="nFh94Qq6Yh2SKhDZ8qFQ-111">
          <mxGeometry x="315.62745098039215" y="355" width="120" height="30" as="geometry" />
        </mxCell>
        <mxCell id="nFh94Qq6Yh2SKhDZ8qFQ-34" value="&lt;font style=&quot;font-size: 12px;&quot;&gt;Realtime&amp;nbsp;&lt;br&gt;Model&amp;nbsp;&lt;br&gt;Serving&lt;/font&gt;" style="whiteSpace=wrap;html=1;aspect=fixed;fontFamily=Verdana;fontSize=10;strokeWidth=1;" vertex="1" parent="nFh94Qq6Yh2SKhDZ8qFQ-111">
          <mxGeometry x="806" y="128.5" width="95" height="95" as="geometry" />
        </mxCell>
        <mxCell id="nFh94Qq6Yh2SKhDZ8qFQ-47" style="edgeStyle=orthogonalEdgeStyle;rounded=0;orthogonalLoop=1;jettySize=auto;html=1;entryX=0;entryY=0.5;entryDx=0;entryDy=0;fontFamily=Verdana;fontSize=10;" edge="1" parent="nFh94Qq6Yh2SKhDZ8qFQ-111" source="nFh94Qq6Yh2SKhDZ8qFQ-20" target="nFh94Qq6Yh2SKhDZ8qFQ-34">
          <mxGeometry relative="1" as="geometry" />
        </mxCell>
        <mxCell id="nFh94Qq6Yh2SKhDZ8qFQ-36" value="&lt;font style=&quot;font-size: 12px;&quot;&gt;Model &lt;br&gt;Training/&lt;br&gt;Evaluation&amp;nbsp;&lt;br&gt;+&lt;br&gt;Batch Scoring&lt;/font&gt;" style="rounded=0;whiteSpace=wrap;html=1;fontFamily=Verdana;fontSize=10;strokeWidth=1;" vertex="1" parent="nFh94Qq6Yh2SKhDZ8qFQ-111">
          <mxGeometry x="806" y="266.16999999999996" width="100" height="119" as="geometry" />
        </mxCell>
        <mxCell id="nFh94Qq6Yh2SKhDZ8qFQ-70" style="edgeStyle=orthogonalEdgeStyle;rounded=0;orthogonalLoop=1;jettySize=auto;html=1;fontFamily=Verdana;fontSize=10;fontColor=#000000;" edge="1" parent="nFh94Qq6Yh2SKhDZ8qFQ-111" source="nFh94Qq6Yh2SKhDZ8qFQ-32" target="nFh94Qq6Yh2SKhDZ8qFQ-36">
          <mxGeometry relative="1" as="geometry" />
        </mxCell>
        <mxCell id="nFh94Qq6Yh2SKhDZ8qFQ-61" value="" style="rounded=0;whiteSpace=wrap;html=1;labelBackgroundColor=#FFFFFF;labelBorderColor=default;fontFamily=Verdana;fontSize=10;fontColor=#000000;strokeWidth=1;dashed=1;" vertex="1" parent="nFh94Qq6Yh2SKhDZ8qFQ-111">
          <mxGeometry x="291" y="390" width="470" height="120" as="geometry" />
        </mxCell>
        <mxCell id="nFh94Qq6Yh2SKhDZ8qFQ-52" value="" style="strokeWidth=1;html=1;shape=mxgraph.flowchart.database;whiteSpace=wrap;" vertex="1" parent="nFh94Qq6Yh2SKhDZ8qFQ-111">
          <mxGeometry x="306.29992432060544" y="395" width="101.6752665978672" height="90" as="geometry" />
        </mxCell>
        <mxCell id="nFh94Qq6Yh2SKhDZ8qFQ-43" value="" style="strokeWidth=1;html=1;shape=mxgraph.flowchart.database;whiteSpace=wrap;" vertex="1" parent="nFh94Qq6Yh2SKhDZ8qFQ-111">
          <mxGeometry x="619.59" y="396" width="133.59" height="90" as="geometry" />
        </mxCell>
        <mxCell id="nFh94Qq6Yh2SKhDZ8qFQ-42" value="" style="sketch=0;outlineConnect=0;fontColor=#232F3E;gradientColor=none;fillColor=#2E27AD;strokeColor=none;dashed=0;verticalLabelPosition=bottom;verticalAlign=top;align=center;html=1;fontSize=12;fontStyle=0;aspect=fixed;pointerEvents=1;shape=mxgraph.aws4.rds_mysql_instance;labelBackgroundColor=#FFFFFF;labelBorderColor=default;fontFamily=Verdana;" vertex="1" parent="nFh94Qq6Yh2SKhDZ8qFQ-111">
          <mxGeometry x="624.1800000000001" y="432" width="40" height="40" as="geometry" />
        </mxCell>
        <mxCell id="nFh94Qq6Yh2SKhDZ8qFQ-44" value="&lt;div style=&quot;&quot;&gt;&lt;font style=&quot;font-size: 12px;&quot; face=&quot;Verdana&quot;&gt;Registry&amp;nbsp;&lt;/font&gt;&lt;/div&gt;&lt;div style=&quot;&quot;&gt;&lt;font style=&quot;font-size: 12px;&quot; face=&quot;Verdana&quot;&gt;(Object Store)&lt;/font&gt;&lt;/div&gt;" style="text;html=1;resizable=0;autosize=1;align=center;verticalAlign=middle;points=[];fillColor=none;strokeColor=none;rounded=0;" vertex="1" parent="nFh94Qq6Yh2SKhDZ8qFQ-111">
          <mxGeometry x="653.1752278028301" y="432" width="110" height="40" as="geometry" />
        </mxCell>
        <mxCell id="nFh94Qq6Yh2SKhDZ8qFQ-49" value="&lt;font style=&quot;&quot;&gt;&lt;font style=&quot;font-size: 10px;&quot; face=&quot;Verdana&quot;&gt;MySQL database instance&lt;/font&gt;&lt;br&gt;&lt;/font&gt;" style="text;html=1;resizable=0;autosize=1;align=left;verticalAlign=middle;points=[];fillColor=none;strokeColor=none;rounded=0;" vertex="1" parent="nFh94Qq6Yh2SKhDZ8qFQ-111">
          <mxGeometry x="625.6074509803922" y="481" width="150" height="30" as="geometry" />
        </mxCell>
        <mxCell id="nFh94Qq6Yh2SKhDZ8qFQ-53" value="" style="shape=image;verticalLabelPosition=bottom;labelBackgroundColor=default;verticalAlign=top;aspect=fixed;imageAspect=0;image=data:image/png,iVBORw0KGgoAAAANSUhEUgAAAgAAAAH8CAMAAACQHuc3AAAACXBIWXMAAC4jAAAuIwF4pT92AAAAV1BMVEVHcEwAAAAsAAAAAAAAAAAAAAAAAAAAAAAAAAD+AAD+AAD8AAD+AAD/AAD///8AAAD+AAD/qKj/wMD/bW3/KCj/Tk7/7u7/mZn/urr/ior/1dX/FBTXAABwpQh4AAAADXRSTlMA7hy3QFJ/2pDkdD+ktrh6+wAAEKlJREFUeNrs3duWm8gOgOE2PnanD8FQYOD933PvSSdrTSYGSVVFx5R+3czFpDFUfZSEwPjpKVMcjpf9/uww9vvT4cl7HPcfvmN/9Dz9pw/i4+x2GTgy+Z9xcjn91ZmZ/xUXTn8EMP8IoPqjDuD8R4CDODDdrgVUO2bbtYALc+1aAAnAuYA9E+1aAAuAcwFUAM4FMMfLUfrtYXpAzgWQAZwL4CawcwFMr28BFbPrWwAAnAugDeRcAACcCwCAcwEAcC4AAM4FAMC5AAA4FwAAWxzcAThfSo0zAhQACv6GzIk1QAHgCQBlCwCAcwEAcC4AAM4FAMC5AAA4FwAA5wIAcLf75UcAAO62v45uBADgfv9TI6ACQLkA3AgAwL3YP7kRAIA5AE4EAGAWgA8BAJgHoBGwqwBQLgAPAgBwtxH05EYAABYBaPrF2xYAgGUAxa8BALg7pbp/VoIAAEgAChcAABFA2QIAoDhshYBzBYByAZQsAACqwy5XAAB0h12sAAAoD7tUAQDQHnahAgCgvst7KVIAAPS3+YsUAADDcx4lCgCA5UGfAgUAwPTMvyxgdwZAwQBUawAACgZQnAAAWL/2pRCwB0DBAAoTAAD7CyH3JQkAQMQbQUsSAICYV8IWJAAAUe8ELkcAAO6G+IOxxQgAQByAYgQAIBJAKQIAEAugEAEAiAZQhgAAJLwlXyHgAoCCAZSwBgAgBUC1/TUAAGmzdt66AAAkLtxbFwCA1My9cQEASC7dti0AAMkAqk0LAED6xdumBQAgw3OdWxYAgBwP9moEnABQLoANCwBAnkf7NysAAIrXhJUsAACZAGxVAACyHXe126IAAOQ77k0KAEDG496iAADkPO4NCgBA1uPWCDgCoFwA2xMAANNLgsrLAgDIDGBrawAAcgPYmAAAZAfwVH1sSAAA8gPYlAAA2F8SVJQAAKwBQBzWxxEAgFUAbEcAANYBsBkBAFhrbjYiAACrTc02BABgvZnZhAAArDgxGgEHADwkgNOTEwEAWHVpfnwBAFj3ju3DCwDAyrfsH10AANb+LueDCwBApu+GzcfxoQUAYI37wRsSAIAv+D7/IwtwDECYlsqHAMcAhEPf+RDgGID02M7ZhQDHAJ6+9E6NRkAFgC8N+Qv9u8uxqsoW4BmA4hcgf0HYnc/7/eVyOZ1Ox+PhcKgiXDymAM8Ajh+J8YPF/ieLo8jiIQV4BlB9rBLzy8UjCvAMQPOW34wu/s9C888qADxIL/AvxRkAW88BiXEBQJk5QB0VADZzHbBKnADwZbF7RAA7ADhfAioA+K4CDgB4mOMHQOlxIQX4BvCIdSBFoO8kwFWA8ysBADi/JQAA54UgAJyvAQBwLgAAzq8FAPA3otoDwDWAB0oDAPhbi8AFAK4BPAoBAPxNAqcdADwD+GdILjsAeAbwzzpwvOx3APAL4CeDw+G4SpwA4DsOAAAAAAAAAAAAAAAAAAAAAAAAAAAAAAAAAAAAAAAAAAAAAAAAAAAAAAAAAAAAAAAAAAAAAAAAAAAAAAAAAAAAAAAAAAAAAAAAAAAAAAAAAAAAAAAAAAAAAAAAAAAAAAAAAAAAAPAN4NvL6/Pzd6KYeH5+ffmmnv3X728//uptPqQPfCPyR8Kgf/6DV4WB6uX7r79I2Bcm6y8AEP728z8vws9LvjB3pcfL0uL/zPiUH8+zieCV099HvN7P/pz+bmqJ5+ru/LMAeBHw9qeAitn3FRXnv/NS8HcB5H9/An6r/zn/XV8LfGP6PV4LfCMBkAQ++7+Mhc944QqQa0EWAJYAFgC/heCPSwDGwW98+9EDIFz3AsgAnoMM4D4HcA3gugp8oQTwXgTQBva8AHx/BoBvAc9PDIJvAVwFAoAAAAEAAgAEAAgAEAAgAEAAgAAAAQACAAQACAAQACAAQACAAAABAAIABAAIABAAIABAAIAAAAEAAgAEAAgAEAAgAEAAgAAAAQACAAQACAAQACAAQACAAADx0ACm21WOXv9hQbG5a5v255N5CJqrPtqcG7u7q4P0V+ErV4DmXRH6PRoVW7ul/fl7Yx6C/l0fg7Sxq2FjdzXd8h9gSgrQHM+oPtUUG+vmz+BWNarjqgBu0sbeCwPQZjktfiaULm056ROGNReAdynJlQZAd9bqxrxOPMM63bD2qwIQ8t1QHABVEqhVFWBaAlCfXN2qAIZ8JcBGALRd+nmhLuFC4gJiLEojAFyXs9x7eQBUSUBReTWJK4l+bOs1AbznKwG2AkC1rIl1oKYCXEoAuivSz5jWBBCylQCbAaBJAmIdWKeO7agf2GZNAEOmndwQANXJd0uvAOvk69G4VoANwDVbCbAdAKokEFIrwMUEYJuldkUA71OuEmBDADRJYExdQ5YFdZaR7dcEEHKVABsCoJrAIa0CrDOW192aAIZcJcCWAGiSwEIdWKcmAHlYEloBRgBjrhJgUwA0SeCWcvqGjA0WYyvACGC+CAgFA0jK4mPyjDXvuSYpA4CQa0ObAqBZhMfo2RMSgDW52kbJOm99rr3cFgBNEhhiK0AhZ7fW+Te1AvpM27bmqY0BUJ3Ibdz41pmnyNYK6DPll1A4AE0SuEWdvVICsDUBzK0AM4CQaTtbAxC3lo/JCcB+atlaAX0mXGPpADRJYIz4mzrD0pPSCujzFBjte/EANDMxmFcNMQFMMfNvaAXYK4wpy6XqBgFoprO1Dm7IsPAktQL6PKtL7wCAZi5uxmVRPlPHOADNegD6PJXqBgFokkAwzZ2YACJyq7EVsABg1G+6NW1hswAUSWA0LRhhhRPU2ApY+IBev+mZYx0KA6CZ08GgRVGqLW3kGnnfVgtguKonYeaOZygNgObWbqs+d+UEsNgE6EKOVsASgEFdBMw4nYoDoDitb+rkHdKqjn658grpAILW1szBXt+KA6DpywVlBahIANPy5/QZWgFLAOaEtdoSoEAAiiQw6qoFRQJY3sokaJzSAdyUszBXApQIQJEEBtW/Sv1C2U26+m7SATTKxWVmP95KBKBJAq2iAqxTP6qRxmtMB9DqioDZEqBIAIokcGuzJIBlRpOYaNpkAMoiYLYEKBOA5p5Antt1nXR+T5ZbUzEAdEXAbfYYiwQQdYc+pkQP8khck1sBywB0RUA3+/FlAtB/WT8pASzP7uf4DcnLzDIAVREwXwKUCmDqEgGoEkCrqPDa5HVmGYCqCGjm56pQAKlJQNejGTT3ZMfUVoAAoFbMw3wJUCyAtCSgSwDLcxtUdxyaZACN4rmH+RKgXABJSSCkrzKdbi0akwEoioCwYKRYAClJIL1J/+9tdImtAAGAoggYFqaqXADxSUCZALS3+urEVoAEQC4CrgsTXDCA6CSgvE3bKKu75aWoSwYgFwFLn1wwgNgkoH1g+6p45kBuBsrcJABiERCWjrNkAHFJQJsAWvUwXNO8SQDEImCpBCgbQFQS0H5lZ1DXdsKTB1MqgFqoLpZKgLIBxCQB9Td2RvXVXZs2YiIAoQiYFlNE2QDsz2xrE4Bga9BbEVsBIgChCFgsAUoHYE4CIQ+t1pAtpFaACGCuCAiKEqB0ANYkUOeR1Zl2YkgF0C/+33FxeksHYEsC6gQgFHa9pWUktQJkAM383V6pBCgfwDSukQCES7tgUxgSAcx1GhQlQPkALElA/96W1nZKh5TEIwOYW+WDXAI4AKBPAvoEIJR1f7yKSHqHxJQIYKkIWC4BPABQJwHDC1xH4xjcEgZNASDMFwGTcO3pAIA2CfTZtjgZa8blVoACwDS/I0IJ4AKALgkYEoBwk+HObzZIOaBNA7BQBPTCaucCwDTmTQBCe6kx54zFVoAGwHwRIJQAPgBokoDlRxwa++ksNAO7RABhLrVIJYATAHISsCQAoQkw2q8bY3+SdpBSzBQk7k4AiN8Ft7y9uY1ZzrvoVoAGwGwRIJUAAIgAMMSczNIaNKUBmHtXzCh9GgDsAKI6+yF63FQA5t4VIx4tAMwAhKm8hvsRvQMqALb31fYASACQ/MVTYytABcD2vtLgDcCUEUDy906trQAdANNvAk6sAPEAmnXmf74VoANgefLl3wcLACuA60oAZlsBOgBvkYsNAIwA2rXmf7YVoARwjaMGACOAYTUAc60AJYAh7oMAYATQrQegSQKgLwJ+u1vJVYANQFhv/uf2QQngLaoEYAUwAqhXBDDTCtACuMaUAACwAZjWnP+ZVoAWgLoIeANANIBmVQBdEoAQUwIAwAbguioA8899DTH16QCAaADtuvN/vxWgBnCNUcZVgAXAsDKAu60ANYAmJs+wAlgAdGsDaFIAhIgSID+A8WqPdiMAwtrzf3c31AB0PpuVAeS8DfJoAOrVAdwbdD2AW8RgA0APYFp//u+1AvQANEXAfy81AaAH0HwBgC4FgOYi5eYSQJ6rgPELANwZCz0ATRHQsALEAmi/Yv7vtAIMABSz0wIgFsDwJQD+bAUYADT2FAMANQBxfe00YW8FGAC09gUGAFoAIeEoTI2UBAAy0gYAsQBq89odeSnRJgCorRvnKkALQGwC3HS7Iq/SQwKAxloCsAJoATTmxTX2YrJLANBaSwAAaAGM5sU1+mIixAOQioAGAJEA2mRB0ZW6CUBtVQoA3fz11sydck95igfQWBvNANAB6HJlAM07y5p4AOYfKuUqQAVAbAJ0+p2RnyoY4wEsS21YASIBiNfXlpeMyTmgjQfQG5cpAGgATCmHEDGGQzyAxniQANAAaDJmAPMtGxuAybhMAUADQGwC1KaKxDYiNgBL+9oAIA6AfOluexZafoC/jgfQ2+5WcBWgACBfuE15Of62QSOAYDtGVgAFALFsv9r2RvFsURMNYLJdqQBABhAyZwDN04XXaADzGw+OAYRaiKVObiP9cd1aPYpbrCfNPw6mjd/NU6pdsO26Pdb/ZhCx1QAAABgEABAAIABAAIAAAAEAAgAEAAgAEAAgAEAAgAAAAQACAAQACAAQACAAQACAAAABAAIABAAIABAAIABAAIAAAAEAAgAEAAgAEAAgAEAAgAAA8WAAnhkEz/G/9u0Gt20YBqAw47/YsoHsAL3/OdelWIG1aFpgrsOG3zuBQT6JpCQvsdgCaguwCULhAvBriyYMlQ1osYpCZQHWMAbUHgJCE1A5/9uzAGpAYZ4rQDgJqDwE/sEcUJZ2FUAbWPYU4CX/toDiG4AuoOgGsPzNf6yKQEUB1lcBFIHSBSCcBlVki3/QBpRtAF7oGFCKpYu3MKDS+n+ff31A3fr/OguYBmus/xYfsCoDFcr/Gh/TKPDo6W9xGwqUTv+1EDRPxR+z9W9rfJFubdu23ODpNgu+gf8I+ra1tYv9GC63CezPJ0E/JfoWAhAABAABQAAQAAQAAUAAEAAEAAFAABAABAABQAAQAAQAAUAAEAAEAAFAABAABAABQAAQgAAEIAABCEAAAhCAAAQgAAEIkFSATrr2Z/pBAszSdXT+cwlwOc/YmcuPEgCHQwACEIAABCAAAQhAAAIQgAAEIMB30Yl3Os4EqE1/6MG0eKfj2PuXs4BnYzpUgFnAs3HsFfwo4Nk4+HZawEu3AGpAOoZcD9TwyKcAV3pBz8SY7Y0qHnwD0AWU7gCux8Enca86AigCCoDToDyc7vYfziT4Gbjjf1j2gMrrnwEp6v+d/8PsXAwX7P81AlmW/xAJ6Chwp/SPkYXRzcDhvd88RCqGae77Mw6g76dxt9bvNwjCaZaYwaJgAAAAAElFTkSuQmCC;" vertex="1" parent="nFh94Qq6Yh2SKhDZ8qFQ-111">
          <mxGeometry x="312.37" y="436" width="35.27" height="35" as="geometry" />
        </mxCell>
        <mxCell id="nFh94Qq6Yh2SKhDZ8qFQ-54" value="&lt;div style=&quot;&quot;&gt;&lt;font style=&quot;font-size: 12px;&quot; face=&quot;Verdana&quot;&gt;Feature&amp;nbsp;&lt;/font&gt;&lt;/div&gt;&lt;div style=&quot;&quot;&gt;&lt;font style=&quot;font-size: 12px;&quot; face=&quot;Verdana&quot;&gt;Repo&lt;/font&gt;&lt;/div&gt;" style="text;html=1;resizable=0;autosize=1;align=center;verticalAlign=middle;points=[];fillColor=none;strokeColor=none;rounded=0;" vertex="1" parent="nFh94Qq6Yh2SKhDZ8qFQ-111">
          <mxGeometry x="342.6400309597523" y="435" width="70" height="40" as="geometry" />
        </mxCell>
        <mxCell id="nFh94Qq6Yh2SKhDZ8qFQ-55" value="&lt;font style=&quot;&quot;&gt;&lt;font style=&quot;font-size: 10px;&quot; face=&quot;Verdana&quot;&gt;Local (yaml file)&lt;/font&gt;&lt;br&gt;&lt;/font&gt;" style="text;html=1;resizable=0;autosize=1;align=left;verticalAlign=middle;points=[];fillColor=none;strokeColor=none;rounded=0;" vertex="1" parent="nFh94Qq6Yh2SKhDZ8qFQ-111">
          <mxGeometry x="320.77745098039213" y="479" width="100" height="30" as="geometry" />
        </mxCell>
        <mxCell id="nFh94Qq6Yh2SKhDZ8qFQ-59" style="edgeStyle=orthogonalEdgeStyle;rounded=0;orthogonalLoop=1;jettySize=auto;html=1;entryX=0;entryY=0.5;entryDx=0;entryDy=0;entryPerimeter=0;fontFamily=Verdana;fontSize=10;fontColor=#FF9933;" edge="1" parent="nFh94Qq6Yh2SKhDZ8qFQ-111" source="nFh94Qq6Yh2SKhDZ8qFQ-56" target="nFh94Qq6Yh2SKhDZ8qFQ-43">
          <mxGeometry relative="1" as="geometry" />
        </mxCell>
        <mxCell id="nFh94Qq6Yh2SKhDZ8qFQ-60" value="&lt;font color=&quot;#000000&quot;&gt;&lt;b&gt;Feast Apply&lt;/b&gt;&lt;/font&gt;" style="edgeLabel;html=1;align=center;verticalAlign=middle;resizable=0;points=[];fontSize=10;fontFamily=Verdana;fontColor=#FF9933;" vertex="1" connectable="0" parent="nFh94Qq6Yh2SKhDZ8qFQ-59">
          <mxGeometry x="-0.131" relative="1" as="geometry">
            <mxPoint as="offset" />
          </mxGeometry>
        </mxCell>
        <mxCell id="nFh94Qq6Yh2SKhDZ8qFQ-56" value="&lt;font style=&quot;font-size: 12px;&quot; face=&quot;Verdana&quot;&gt;Feast SDK&lt;/font&gt;" style="rounded=0;whiteSpace=wrap;html=1;fontSize=8;strokeWidth=1;" vertex="1" parent="nFh94Qq6Yh2SKhDZ8qFQ-111">
          <mxGeometry x="435" y="427.5" width="76" height="25" as="geometry" />
        </mxCell>
        <mxCell id="nFh94Qq6Yh2SKhDZ8qFQ-58" style="edgeStyle=orthogonalEdgeStyle;rounded=0;orthogonalLoop=1;jettySize=auto;html=1;entryX=0;entryY=0.5;entryDx=0;entryDy=0;fontFamily=Verdana;fontSize=10;fontColor=#FF9933;" edge="1" parent="nFh94Qq6Yh2SKhDZ8qFQ-111" source="nFh94Qq6Yh2SKhDZ8qFQ-52" target="nFh94Qq6Yh2SKhDZ8qFQ-56">
          <mxGeometry relative="1" as="geometry" />
        </mxCell>
        <mxCell id="nFh94Qq6Yh2SKhDZ8qFQ-73" style="edgeStyle=orthogonalEdgeStyle;rounded=0;orthogonalLoop=1;jettySize=auto;html=1;exitX=1;exitY=0;exitDx=0;exitDy=105;exitPerimeter=0;entryX=0;entryY=0.5;entryDx=0;entryDy=0;entryPerimeter=0;fontFamily=Verdana;fontSize=10;fontColor=#000000;" edge="1" parent="nFh94Qq6Yh2SKhDZ8qFQ-111" source="nFh94Qq6Yh2SKhDZ8qFQ-72" target="nFh94Qq6Yh2SKhDZ8qFQ-6">
          <mxGeometry relative="1" as="geometry" />
        </mxCell>
        <mxCell id="nFh94Qq6Yh2SKhDZ8qFQ-74" style="edgeStyle=orthogonalEdgeStyle;rounded=0;orthogonalLoop=1;jettySize=auto;html=1;exitX=1;exitY=0;exitDx=0;exitDy=45;exitPerimeter=0;entryX=0.5;entryY=0;entryDx=0;entryDy=0;fontFamily=Verdana;fontSize=10;fontColor=#000000;" edge="1" parent="nFh94Qq6Yh2SKhDZ8qFQ-111" source="nFh94Qq6Yh2SKhDZ8qFQ-72" target="nFh94Qq6Yh2SKhDZ8qFQ-20">
          <mxGeometry relative="1" as="geometry">
            <Array as="points">
              <mxPoint x="251" y="115" />
              <mxPoint x="251" y="30" />
              <mxPoint x="523" y="30" />
            </Array>
          </mxGeometry>
        </mxCell>
        <mxCell id="nFh94Qq6Yh2SKhDZ8qFQ-72" value="" style="shape=cylinder3;whiteSpace=wrap;html=1;boundedLbl=1;backgroundOutline=1;size=15;labelBackgroundColor=#FFFFFF;labelBorderColor=default;fontFamily=Verdana;fontSize=10;fontColor=#000000;strokeWidth=1;" vertex="1" parent="nFh94Qq6Yh2SKhDZ8qFQ-111">
          <mxGeometry x="11" y="70" width="170" height="150" as="geometry" />
        </mxCell>
        <mxCell id="nFh94Qq6Yh2SKhDZ8qFQ-76" value="" style="sketch=0;outlineConnect=0;fontColor=#232F3E;gradientColor=none;fillColor=#067F68;strokeColor=none;dashed=0;verticalLabelPosition=bottom;verticalAlign=top;align=center;html=1;fontSize=12;fontStyle=0;aspect=fixed;pointerEvents=1;shape=mxgraph.aws4.sagemaker_model;labelBackgroundColor=#FFFFFF;labelBorderColor=default;fontFamily=Verdana;" vertex="1" parent="nFh94Qq6Yh2SKhDZ8qFQ-111">
          <mxGeometry x="862" y="396" width="34" height="34" as="geometry" />
        </mxCell>
        <mxCell id="nFh94Qq6Yh2SKhDZ8qFQ-78" value="" style="sketch=0;pointerEvents=1;shadow=0;dashed=0;html=1;strokeColor=none;labelPosition=center;verticalLabelPosition=bottom;verticalAlign=top;outlineConnect=0;align=center;shape=mxgraph.office.users.user;fillColor=#7FBA42;labelBackgroundColor=#FFFFFF;labelBorderColor=default;fontFamily=Verdana;fontSize=10;fontColor=#000000;" vertex="1" parent="nFh94Qq6Yh2SKhDZ8qFQ-111">
          <mxGeometry x="816.88" y="395" width="35" height="35" as="geometry" />
        </mxCell>
        <mxCell id="nFh94Qq6Yh2SKhDZ8qFQ-81" value="&lt;font style=&quot;&quot;&gt;&lt;font style=&quot;font-size: 10px;&quot; face=&quot;Verdana&quot;&gt;&lt;b&gt;get_historical_features&lt;/b&gt;&lt;/font&gt;&lt;br&gt;&lt;/font&gt;" style="text;html=1;resizable=0;autosize=1;align=left;verticalAlign=middle;points=[];fillColor=none;strokeColor=none;rounded=0;" vertex="1" parent="nFh94Qq6Yh2SKhDZ8qFQ-111">
          <mxGeometry x="569.1774509803922" y="301" width="150" height="30" as="geometry" />
        </mxCell>
        <mxCell id="nFh94Qq6Yh2SKhDZ8qFQ-82" value="&lt;font style=&quot;&quot;&gt;&lt;font style=&quot;font-size: 10px;&quot; face=&quot;Verdana&quot;&gt;&lt;b&gt;get_online_features&lt;/b&gt;&lt;/font&gt;&lt;br&gt;&lt;/font&gt;" style="text;html=1;resizable=0;autosize=1;align=left;verticalAlign=middle;points=[];fillColor=none;strokeColor=none;rounded=0;" vertex="1" parent="nFh94Qq6Yh2SKhDZ8qFQ-111">
          <mxGeometry x="580.9974509803922" y="148.5" width="140" height="30" as="geometry" />
        </mxCell>
        <mxCell id="nFh94Qq6Yh2SKhDZ8qFQ-83" value="&lt;div style=&quot;&quot;&gt;&lt;font style=&quot;font-size: 12px;&quot; face=&quot;Verdana&quot;&gt;Stream Sources&lt;/font&gt;&lt;/div&gt;" style="text;html=1;resizable=0;autosize=1;align=center;verticalAlign=middle;points=[];fillColor=none;strokeColor=none;rounded=0;" vertex="1" parent="nFh94Qq6Yh2SKhDZ8qFQ-111">
          <mxGeometry x="35.995227802830044" y="98.5" width="120" height="30" as="geometry" />
        </mxCell>
        <mxCell id="nFh94Qq6Yh2SKhDZ8qFQ-87" value="&lt;font style=&quot;&quot;&gt;&lt;font style=&quot;font-size: 10px;&quot; face=&quot;Verdana&quot;&gt;&lt;b&gt;push&lt;/b&gt;&lt;/font&gt;&lt;br&gt;&lt;/font&gt;" style="text;html=1;resizable=0;autosize=1;align=left;verticalAlign=middle;points=[];fillColor=none;strokeColor=none;rounded=0;" vertex="1" parent="nFh94Qq6Yh2SKhDZ8qFQ-111">
          <mxGeometry x="424.99745098039216" y="136" width="50" height="30" as="geometry" />
        </mxCell>
        <mxCell id="nFh94Qq6Yh2SKhDZ8qFQ-90" style="edgeStyle=orthogonalEdgeStyle;rounded=0;orthogonalLoop=1;jettySize=auto;html=1;fontFamily=Verdana;fontSize=12;fontColor=#000000;" edge="1" parent="nFh94Qq6Yh2SKhDZ8qFQ-111" source="nFh94Qq6Yh2SKhDZ8qFQ-89" target="nFh94Qq6Yh2SKhDZ8qFQ-3">
          <mxGeometry relative="1" as="geometry">
            <Array as="points">
              <mxPoint x="261" y="406" />
              <mxPoint x="261" y="316" />
            </Array>
          </mxGeometry>
        </mxCell>
        <mxCell id="nFh94Qq6Yh2SKhDZ8qFQ-89" value="" style="shape=cylinder3;whiteSpace=wrap;html=1;boundedLbl=1;backgroundOutline=1;size=15;labelBackgroundColor=#FFFFFF;labelBorderColor=default;fontFamily=Verdana;fontSize=10;fontColor=#000000;strokeWidth=1;" vertex="1" parent="nFh94Qq6Yh2SKhDZ8qFQ-111">
          <mxGeometry x="11" y="325" width="170" height="150" as="geometry" />
        </mxCell>
        <mxCell id="nFh94Qq6Yh2SKhDZ8qFQ-91" value="&lt;font style=&quot;&quot;&gt;&lt;font style=&quot;font-size: 10px;&quot; face=&quot;Verdana&quot;&gt;&lt;b&gt;feature_server:6565/push&lt;/b&gt;&lt;/font&gt;&lt;br&gt;&lt;/font&gt;" style="text;html=1;resizable=0;autosize=1;align=left;verticalAlign=middle;points=[];fillColor=none;strokeColor=none;rounded=0;" vertex="1" parent="nFh94Qq6Yh2SKhDZ8qFQ-111">
          <mxGeometry x="293.44745098039215" width="170" height="30" as="geometry" />
        </mxCell>
        <mxCell id="nFh94Qq6Yh2SKhDZ8qFQ-95" value="&lt;div style=&quot;&quot;&gt;&lt;font style=&quot;font-size: 12px;&quot; face=&quot;Verdana&quot;&gt;Batch Sources&lt;/font&gt;&lt;/div&gt;" style="text;html=1;resizable=0;autosize=1;align=center;verticalAlign=middle;points=[];fillColor=none;strokeColor=none;rounded=0;" vertex="1" parent="nFh94Qq6Yh2SKhDZ8qFQ-111">
          <mxGeometry x="40.995227802830044" y="358" width="110" height="30" as="geometry" />
        </mxCell>
        <mxCell id="nFh94Qq6Yh2SKhDZ8qFQ-96" value="&lt;font style=&quot;&quot;&gt;&lt;font style=&quot;font-size: 10px;&quot; face=&quot;Verdana&quot;&gt;&lt;b&gt;store.push()&lt;/b&gt;&lt;/font&gt;&lt;br&gt;&lt;/font&gt;" style="text;html=1;resizable=0;autosize=1;align=left;verticalAlign=middle;points=[];fillColor=none;strokeColor=none;rounded=0;" vertex="1" parent="nFh94Qq6Yh2SKhDZ8qFQ-111">
          <mxGeometry x="203.44745098039215" y="173.10000000000002" width="90" height="30" as="geometry" />
        </mxCell>
        <mxCell id="nFh94Qq6Yh2SKhDZ8qFQ-99" value="&lt;font style=&quot;font-size: 12px;&quot; face=&quot;Verdana&quot;&gt;Raw Data&lt;/font&gt;" style="rounded=0;whiteSpace=wrap;html=1;fontSize=8;strokeWidth=1;" vertex="1" parent="nFh94Qq6Yh2SKhDZ8qFQ-111">
          <mxGeometry x="21" y="388" width="50" height="70" as="geometry" />
        </mxCell>
        <mxCell id="nFh94Qq6Yh2SKhDZ8qFQ-100" value="&lt;font style=&quot;font-size: 12px;&quot; face=&quot;Verdana&quot;&gt;Transformed&lt;br&gt;Data&lt;/font&gt;" style="rounded=0;whiteSpace=wrap;html=1;fontSize=8;strokeWidth=1;" vertex="1" parent="nFh94Qq6Yh2SKhDZ8qFQ-111">
          <mxGeometry x="81" y="388" width="90" height="70" as="geometry" />
        </mxCell>
        <mxCell id="nFh94Qq6Yh2SKhDZ8qFQ-101" value="&lt;div style=&quot;text-align: center;&quot;&gt;&lt;span style=&quot;font-size: 10px; font-family: Verdana; background-color: initial;&quot;&gt;Snowflake, BigQuery,&lt;/span&gt;&lt;/div&gt;&lt;font style=&quot;&quot;&gt;&lt;div style=&quot;text-align: center;&quot;&gt;&lt;span style=&quot;background-color: initial;&quot;&gt;Redshift, Synapse, S3, GCS&lt;/span&gt;&lt;/div&gt;&lt;/font&gt;" style="text;html=1;resizable=0;autosize=1;align=left;verticalAlign=middle;points=[];fillColor=none;strokeColor=none;rounded=0;" vertex="1" parent="nFh94Qq6Yh2SKhDZ8qFQ-111">
          <mxGeometry x="20.99745098039216" y="474" width="170" height="40" as="geometry" />
        </mxCell>
        <mxCell id="nFh94Qq6Yh2SKhDZ8qFQ-102" value="&lt;font style=&quot;font-size: 12px;&quot; face=&quot;Verdana&quot;&gt;Raw Data&lt;/font&gt;" style="rounded=0;whiteSpace=wrap;html=1;fontSize=8;strokeWidth=1;" vertex="1" parent="nFh94Qq6Yh2SKhDZ8qFQ-111">
          <mxGeometry x="21" y="128.5" width="50" height="70" as="geometry" />
        </mxCell>
        <mxCell id="nFh94Qq6Yh2SKhDZ8qFQ-103" value="&lt;font style=&quot;font-size: 12px;&quot; face=&quot;Verdana&quot;&gt;Transformed&lt;br&gt;Data&lt;/font&gt;" style="rounded=0;whiteSpace=wrap;html=1;fontSize=8;strokeWidth=1;" vertex="1" parent="nFh94Qq6Yh2SKhDZ8qFQ-111">
          <mxGeometry x="81" y="128.5" width="90" height="70" as="geometry" />
        </mxCell>
        <mxCell id="nFh94Qq6Yh2SKhDZ8qFQ-104" value="&lt;div style=&quot;text-align: center;&quot;&gt;&lt;font face=&quot;Verdana&quot;&gt;&lt;span style=&quot;font-size: 10px;&quot;&gt;Kafka, Kinesis&lt;/span&gt;&lt;/font&gt;&lt;/div&gt;" style="text;html=1;resizable=0;autosize=1;align=left;verticalAlign=middle;points=[];fillColor=none;strokeColor=none;rounded=0;" vertex="1" parent="nFh94Qq6Yh2SKhDZ8qFQ-111">
          <mxGeometry x="51.99745098039216" y="221" width="90" height="30" as="geometry" />
        </mxCell>
        <mxCell id="nFh94Qq6Yh2SKhDZ8qFQ-105" value="" style="sketch=0;points=[[0,0,0],[0.25,0,0],[0.5,0,0],[0.75,0,0],[1,0,0],[0,1,0],[0.25,1,0],[0.5,1,0],[0.75,1,0],[1,1,0],[0,0.25,0],[0,0.5,0],[0,0.75,0],[1,0.25,0],[1,0.5,0],[1,0.75,0]];outlineConnect=0;fontColor=#232F3E;gradientColor=#945DF2;gradientDirection=north;fillColor=#5A30B5;strokeColor=#ffffff;dashed=0;verticalLabelPosition=bottom;verticalAlign=top;align=center;html=1;fontSize=12;fontStyle=0;aspect=fixed;shape=mxgraph.aws4.resourceIcon;resIcon=mxgraph.aws4.kinesis_data_streams;labelBackgroundColor=none;labelBorderColor=default;fontFamily=Verdana;" vertex="1" parent="nFh94Qq6Yh2SKhDZ8qFQ-111">
          <mxGeometry x="96" y="246" width="44" height="44" as="geometry" />
        </mxCell>
        <mxCell id="nFh94Qq6Yh2SKhDZ8qFQ-106" value="" style="shape=image;verticalLabelPosition=bottom;labelBackgroundColor=default;verticalAlign=top;aspect=fixed;imageAspect=0;image=http://assets.stickpng.com/thumbs/584809c9cef1014c0b5e4909.png;" vertex="1" parent="nFh94Qq6Yh2SKhDZ8qFQ-111">
          <mxGeometry x="43" y="246" width="44" height="44" as="geometry" />
        </mxCell>
        <mxCell id="nFh94Qq6Yh2SKhDZ8qFQ-107" value="" style="sketch=0;points=[[0,0,0],[0.25,0,0],[0.5,0,0],[0.75,0,0],[1,0,0],[0,1,0],[0.25,1,0],[0.5,1,0],[0.75,1,0],[1,1,0],[0,0.25,0],[0,0.5,0],[0,0.75,0],[1,0.25,0],[1,0.5,0],[1,0.75,0]];outlineConnect=0;fontColor=#232F3E;gradientColor=#60A337;gradientDirection=north;fillColor=#277116;strokeColor=#ffffff;dashed=0;verticalLabelPosition=bottom;verticalAlign=top;align=center;html=1;fontSize=12;fontStyle=0;aspect=fixed;shape=mxgraph.aws4.resourceIcon;resIcon=mxgraph.aws4.s3;labelBackgroundColor=none;labelBorderColor=default;fontFamily=Verdana;" vertex="1" parent="nFh94Qq6Yh2SKhDZ8qFQ-111">
          <mxGeometry x="122" y="514" width="46" height="46" as="geometry" />
        </mxCell>
        <mxCell id="nFh94Qq6Yh2SKhDZ8qFQ-108" value="" style="sketch=0;points=[[0,0,0],[0.25,0,0],[0.5,0,0],[0.75,0,0],[1,0,0],[0,1,0],[0.25,1,0],[0.5,1,0],[0.75,1,0],[1,1,0],[0,0.25,0],[0,0.5,0],[0,0.75,0],[1,0.25,0],[1,0.5,0],[1,0.75,0]];outlineConnect=0;fontColor=#232F3E;gradientColor=#4D72F3;gradientDirection=north;fillColor=#3334B9;strokeColor=#ffffff;dashed=0;verticalLabelPosition=bottom;verticalAlign=top;align=center;html=1;fontSize=12;fontStyle=0;aspect=fixed;shape=mxgraph.aws4.resourceIcon;resIcon=mxgraph.aws4.redshift;labelBackgroundColor=none;labelBorderColor=default;fontFamily=Verdana;" vertex="1" parent="nFh94Qq6Yh2SKhDZ8qFQ-111">
          <mxGeometry x="74" y="514" width="46" height="46" as="geometry" />
        </mxCell>
        <mxCell id="nFh94Qq6Yh2SKhDZ8qFQ-109" value="" style="editableCssRules=.*;shape=image;verticalLabelPosition=bottom;labelBackgroundColor=#ffffff;verticalAlign=top;aspect=fixed;imageAspect=0;image=data:image/svg+xml,PHN2ZyB4bWxucz0iaHR0cDovL3d3dy53My5vcmcvMjAwMC9zdmciIHhtbG5zOnY9Imh0dHBzOi8vdmVjdGEuaW8vbmFubyIgd2lkdGg9IjIwLjAwMTA0NTIyNzA1MDc4IiBoZWlnaHQ9IjIwLjAwMTA0NTIyNzA1MDc4IiBmaWxsLXJ1bGU9ImV2ZW5vZGQiIHZpZXdCb3g9IjAgMCAyMC4wMDEwNDUyMjcwNTA3OCAyMC4wMDEwNDUyMjcwNTA3OCI+JiN4YTsJPHN0eWxlIHR5cGU9InRleHQvY3NzIj4mI3hhOwkuc3Qwe2ZpbGw6I2FlY2JmYTt9JiN4YTsJLnN0MXtmaWxsOiM2NjlkZjY7fSYjeGE7CS5zdDJ7ZmlsbDojNDI4NWY0O30mI3hhOwk8L3N0eWxlPiYjeGE7CTxwYXRoIGNsYXNzPSJzdDAiIGQ9Ik00LjczIDguODN2Mi42M2E0LjkxIDQuOTEgMCAwIDAgMS43MSAxLjc0VjguODN6Ii8+JiN4YTsJPHBhdGggY2xhc3M9InN0MSIgZD0iTTcuODkgNi40MXY3LjUzQTcuNjIgNy42MiAwIDAgMCA5IDE0YTggOCAwIDAgMCAxIDBWNi40MXoiLz4mI3hhOwk8cGF0aCBjbGFzcz0ic3QwIiBkPSJNMTEuNjQgOS44NnYzLjI5YTUgNSAwIDAgMCAxLjctMS44MlY5Ljg2eiIvPiYjeGE7CTxwYXRoIGNsYXNzPSJzdDIiIGQ9Ik0xNS43NCAxNC4zMmwtMS40MiAxLjQyYS40Mi40MiAwIDAgMCAwIC42bDMuNTQgMy41NGEuNDIuNDIgMCAwIDAgLjU5IDBsMS40My0xLjQzYS40Mi40MiAwIDAgMCAwLS41OWwtMy41NC0zLjU0YS40Mi40MiAwIDAgMC0uNiAwIi8+JiN4YTsJPHBhdGggY2xhc3M9InN0MSIgZD0iTTkgMGE5IDkgMCAxIDAgMCAxOEE5IDkgMCAxIDAgOSAwbTAgMTUuNjlhNi42OCA2LjY4IDAgMCAxIC4wMDctMTMuMzYgNi42OCA2LjY4IDAgMCAxIDQuNzI3IDExLjQwM0E2LjY4IDYuNjggMCAwIDEgOSAxNS42OSIvPiYjeGE7PC9zdmc+;labelBorderColor=default;fontFamily=Verdana;fontSize=10;fontColor=#000000;strokeWidth=1;fillColor=none;" vertex="1" parent="nFh94Qq6Yh2SKhDZ8qFQ-111">
          <mxGeometry x="24" y="514" width="46" height="46" as="geometry" />
        </mxCell>
        <mxCell id="nFh94Qq6Yh2SKhDZ8qFQ-110" value="" style="rounded=0;whiteSpace=wrap;html=1;labelBackgroundColor=none;labelBorderColor=default;fontFamily=Verdana;fontSize=10;fontColor=#000000;strokeWidth=1;fillColor=none;dashed=1;" vertex="1" parent="nFh94Qq6Yh2SKhDZ8qFQ-111">
          <mxGeometry y="50" width="191" height="520" as="geometry" />
        </mxCell>
      </root>
    </mxGraphModel>
  </diagram>
</mxfile>
